<svg width="3000" height="850" viewBox="0 0 3000 850" fill="none" xmlns="http://www.w3.org/2000/svg">
  <defs>
    <!-- Global gradient covering the full viewBox -->
<linearGradient id="globalGradient" x1="0" y1="0" x2="3000" y2="0" gradientUnits="userSpaceOnUse">
   <stop offset="0%" stop-color="#00bcd4"/>
  <stop offset="3%" stop-color="#3fa3f7"/>
  <stop offset="70%" stop-color="#4f7df9"/>
  <stop offset="100%" stop-color="#a78bfa"/>
    </linearGradient>
  </defs>

  <!-- All paths share the global gradient -->
  <path d="M0 95.125V544.515H104.732L260.649 95.125H0Z" fill="url(#globalGradient)" stroke="black"/>
  <path d="M588.356 754.95H660.086V278.973H423.146L588.356 754.95Z" fill="url(#globalGradient)"/>
  <path d="M312.814 379.947L204.566 692.186H421.087L312.814 379.947Z" fill="url(#globalGradient)"/>
  <path d="M1119.63 621.363V568.063C1102.52 588.43 1080.99 604.63 1056.68 615.432C1032.37 626.234 1005.92 631.353 979.33 630.401C897.252 630.401 825.07 583.629 825.07 496.738V495.107C825.07 399.178 899.714 353.235 1000.65 353.235C1041.3 352.524 1081.77 358.617 1120.4 371.261V363.051C1120.4 303.174 1082.73 270.412 1013.76 270.412C971.044 270.569 928.847 279.803 889.969 297.501L862.819 217.966C914.299 193.445 970.732 181.092 1027.75 181.864C1155.84 181.864 1218.05 249.122 1218.05 364.758V621.363H1119.63ZM1122.14 440.1C1090.34 428.484 1056.73 422.643 1022.88 422.853C960.518 422.853 923.624 448.26 923.624 490.085V491.768C923.624 532.79 960.543 555.737 1007.31 555.737C1072.96 555.737 1122.14 518.831 1122.14 464.704V440.1Z" fill="url(#globalGradient)"/>
  <path d="M1262.38 188.343H1361.64V253.969C1375.43 231.275 1394.81 212.498 1417.94 199.435C1441.07 186.371 1467.16 179.457 1493.72 179.355C1520.3 178.107 1546.66 184.667 1569.56 198.226C1592.45 211.784 1610.87 231.748 1622.54 255.651C1638.94 231.923 1660.91 212.566 1686.51 199.268C1712.12 185.969 1740.59 179.133 1769.44 179.355C1863.77 179.355 1921.16 239.257 1921.16 345.052V621.364H1821.91V375.329C1821.91 306.465 1789.91 269.534 1734 269.534C1678.09 269.534 1641.3 307.193 1641.3 376.961V621.339H1542.14V374.501C1542.14 307.268 1509.29 269.534 1454.39 269.534C1399.49 269.534 1361.66 310.532 1361.66 377.79V621.314H1262.38V188.343Z" fill="url(#globalGradient)"/>
  <path d="M2580.8 406.509V404.902C2580.8 281.082 2668.55 179.379 2792.45 179.379C2930.31 179.379 3000.03 287.634 3000.03 412.258C3000.03 421.296 2999.2 430.284 2998.39 440.151H2680.05C2682.84 470.934 2697.32 499.48 2720.52 519.915C2743.72 540.35 2773.88 551.121 2804.78 550.013C2826.87 550.125 2848.73 545.581 2868.94 536.679C2889.16 527.776 2907.27 514.714 2922.09 498.345L2980.31 550.013C2959.05 576.298 2931.99 597.306 2901.25 611.391C2870.51 625.477 2836.92 632.259 2803.12 631.204C2773.47 632.098 2743.96 626.879 2716.42 615.873C2688.88 604.866 2663.91 588.308 2643.05 567.23C2622.19 546.152 2605.9 521.006 2595.19 493.359C2584.48 465.712 2579.58 436.157 2580.8 406.534V406.509ZM2901.57 374.55C2894.99 310.581 2857.24 260.545 2791.64 260.545C2730.96 260.545 2688.27 307.292 2679.28 374.55H2901.57Z" fill="url(#globalGradient)"/>
  <path d="M2449.47 102.933L2510.55 0H2548.75V621.389H2449.44L2449.47 102.933Z" fill="url(#globalGradient)"/>
  <path d="M2214.03 179.33C2184.67 179.303 2155.79 186.741 2130.1 200.944C2104.4 215.147 2082.74 235.649 2067.16 260.522V188.293H1967.9V849.976H2006.08L2067.18 746.917V554.031C2083.56 577.781 2105.51 597.154 2131.12 610.456C2156.73 623.757 2185.2 630.58 2214.06 630.327C2317.46 630.327 2415.89 549.136 2415.89 405.607V403.975C2415.81 260.497 2316.61 179.33 2214.03 179.33ZM2314.92 405.682C2314.92 491.041 2259.14 544.24 2191.05 544.24C2122.97 544.24 2064.7 489.284 2064.7 405.682V404.05C2063.62 386.596 2066.05 369.103 2071.87 352.609C2077.68 336.115 2086.75 320.956 2098.53 308.032C2110.32 295.109 2124.58 284.684 2140.47 277.376C2156.37 270.069 2173.57 266.027 2191.05 265.493C2258.31 265.493 2314.92 320.449 2314.92 404.05V405.682Z" fill="url(#globalGradient)"/>
</svg>