<svg width="3000" height="1028" viewBox="0 0 3000 1028" fill="none" xmlns="http://www.w3.org/2000/svg">
  <defs>
    <linearGradient id="globalGradient" x1="0" y1="0" x2="3000" y2="0" gradientUnits="userSpaceOnUse">
      <stop offset="0%" stop-color="#00bcd4"/>
      <stop offset="5%" stop-color="#3fa3f7"/>
      <stop offset="70%" stop-color="#4f7df9"/>
      <stop offset="100%" stop-color="#a78bfa"/>
    </linearGradient>

    <clipPath id="clip0_258_1041">
      <rect width="3000" height="1028" fill="white"/>
    </clipPath>
  </defs>

  <g clip-path="url(#clip0_258_1041)" fill="url(#globalGradient)">
    <path d="M768.559 303.015C771.66 305.83 774.698 308.701 777.733 311.586C779.349 312.971 780.972 314.348 782.602 315.717C791.152 323.209 798.182 331.929 804.951 341.018C805.529 341.787 806.107 342.555 806.702 343.347C810.778 348.927 810.778 348.927 810.778 352.895C808.137 354.932 808.137 354.932 804.509 357.173C792.657 364.791 782.097 373.951 771.833 383.581C771.213 384.16 770.594 384.739 769.956 385.336C725.949 426.843 702.864 482.864 701.022 542.915C700.567 592.51 715.295 641.684 745.869 681.005C746.631 681.994 747.393 682.983 748.178 684.002C756.432 694.519 765.078 704.322 775.373 712.872C776.429 713.781 777.485 714.691 778.572 715.629C796.21 730.675 816.31 744.343 837.922 753C837.248 761.113 834.431 768.288 831.579 775.868C830.795 777.963 830.795 777.963 829.996 780.101C822.366 800.228 813.72 819.978 803.782 839.076C802.366 841.81 800.978 844.558 799.59 847.305C787.757 870.525 773.772 892.179 758.851 913.515C758.237 914.397 757.624 915.28 756.992 916.19C749.245 927.338 741.286 938.255 732.887 948.922C732.076 949.963 731.265 951.004 730.43 952.076C725.624 958.18 720.588 964.01 715.346 969.743C713.164 972.152 711.073 974.609 708.988 977.101C685.814 1003.53 652.786 1024.72 617.081 1027.06C583.109 1028.1 556.131 1019.66 525.103 1006.68C510.788 1000.7 496.64 995.029 481.51 991.411C480.731 991.21 479.952 991.009 479.149 990.801C453.94 984.478 421.67 985.126 396.538 991.411C395.639 991.633 394.741 991.855 393.816 992.084C375.197 996.859 357.582 1004.46 339.852 1011.77C304.66 1026.22 266.114 1036.07 229.349 1021.1C208.088 1011.9 191.051 998.091 174.665 981.969C173.559 980.909 172.453 979.848 171.313 978.756C164.363 971.998 158.281 964.755 152.242 957.184C151.066 955.757 149.887 954.333 148.706 952.91C139.116 941.323 130.221 929.346 121.557 917.055C120.797 915.985 120.037 914.914 119.254 913.81C108.813 899.088 98.8133 884.242 89.6925 868.665C89.1399 867.733 88.5873 866.801 88.0179 865.84C40.8382 786.111 9.85306 693.262 2.35971 600.748C2.20724 598.931 2.20724 598.931 2.0517 597.078C1.08541 584.355 0.941568 571.676 0.958251 558.922C0.959357 557.827 0.960426 556.731 0.961565 555.603C1.15113 468.741 26.3791 384.508 88.5861 321.839C106.239 304.362 126.642 289.92 148.701 278.539C149.562 278.093 150.422 277.648 151.309 277.188C204.713 249.895 264.785 243.765 321.988 261.894C338.828 267.373 355.259 273.769 371.684 280.358C415.096 297.718 443.464 294.629 486.268 277.939C580.266 241.303 686.176 231.503 768.559 303.015Z" />
    <path d="M2229.31 433.011C2276.16 432.059 2318.16 448.939 2351.93 481.318C2358.18 487.539 2363.45 494.474 2368.61 501.608C2369.11 502.288 2369.61 502.967 2370.12 503.667C2393.16 535.23 2404.65 574.041 2408.73 612.552C2408.86 613.783 2409 615.014 2409.13 616.282C2414.97 682.079 2401.37 751.275 2358.74 803.035C2329.39 837.883 2287.61 859.317 2242.33 863.946C2195.3 865.97 2153.36 858.6 2116.93 826.768C2108.88 819.347 2102.36 811.493 2095.99 802.573C2095.6 875.406 2095.21 948.24 2094.81 1023.28C2069.88 1023.28 2044.96 1023.28 2019.27 1023.28C2019.26 1014.04 2019.26 1014.04 2019.25 1004.61C2019.16 947.767 2019.06 890.923 2018.94 834.079C2018.93 826.588 2018.91 819.097 2018.9 811.607C2018.9 810.116 2018.89 808.625 2018.89 807.089C2018.84 783.129 2018.81 759.17 2018.77 735.21C2018.73 710.52 2018.69 685.83 2018.63 661.14C2018.6 647.317 2018.58 633.493 2018.56 619.67C2018.6 556.844 2018.6 556.844 2017.54 494.03C2017.51 493.172 2017.49 492.314 2017.47 491.43C2017.01 475.147 2016.35 458.873 2015.73 442.596C2038.32 442.596 2060.91 442.596 2084.18 442.596C2085.51 453.215 2085.51 453.215 2085.7 457.383C2085.74 458.317 2085.78 459.251 2085.83 460.213C2085.87 461.189 2085.91 462.166 2085.95 463.172C2086 464.207 2086.05 465.243 2086.1 466.31C2086.25 469.593 2086.4 472.876 2086.54 476.159C2086.74 480.485 2086.93 484.811 2087.13 489.137C2087.18 490.111 2087.22 491.085 2087.26 492.089C2087.56 498.451 2088.15 504.726 2088.91 511.05C2089.61 510.022 2090.31 508.993 2091.03 507.934C2097.91 497.994 2105.3 489.058 2113.69 480.364C2114.55 479.431 2115.4 478.499 2116.29 477.538C2145.23 446.937 2188.31 434.262 2229.31 433.011ZM2126.21 534.096C2106.85 556.368 2094.77 587.42 2094.62 616.901C2094.61 617.768 2094.6 618.635 2094.6 619.528C2094.58 622.376 2094.57 625.223 2094.57 628.071C2094.56 629.054 2094.56 630.037 2094.56 631.049C2094.54 636.261 2094.53 641.473 2094.52 646.684C2094.52 652.01 2094.49 657.336 2094.45 662.662C2094.43 666.805 2094.43 670.949 2094.42 675.093C2094.42 677.053 2094.41 679.013 2094.4 680.973C2094.13 716.252 2104.52 746.577 2129.18 772.624C2151.05 793.797 2180.83 805.472 2211.22 805.288C2243.57 804.437 2271.86 792.976 2294.26 769.526C2322.72 738.867 2332.92 695.852 2334.38 655.041C2334.43 653.757 2334.48 652.473 2334.53 651.15C2335.37 606.425 2323.36 560.061 2292.31 526.767C2272.63 506.48 2245.99 494.657 2217.65 494.182C2181.24 493.967 2150.81 507.008 2126.21 534.096Z" />
    <path d="M1763.14 433.011C1796.75 432.324 1832.51 440.043 1859.95 460.299C1861.2 461.211 1862.44 462.122 1863.72 463.061C1876.59 472.663 1887.96 482.868 1897.72 495.707C1898.19 496.329 1898.67 496.951 1899.16 497.592C1928.23 536.022 1942.54 583.419 1943.75 631.436C1943.77 632.231 1943.79 633.027 1943.82 633.846C1945.63 700.289 1928.44 765.233 1882.38 814.375C1850.96 846.228 1806.28 863.804 1761.9 864.291C1717.38 864.547 1679.33 853.761 1646.34 822.637C1645.59 821.946 1644.84 821.255 1644.06 820.544C1638.16 814.949 1634.71 809.553 1629.82 802.573C1629.43 875.406 1629.04 948.239 1628.64 1023.28C1603.71 1023.28 1578.79 1023.28 1553.11 1023.28C1553.1 1017.2 1553.09 1011.12 1553.08 1004.86C1552.99 948.772 1552.89 892.688 1552.78 836.604C1552.76 829.215 1552.75 821.826 1552.73 814.438C1552.73 812.967 1552.73 811.496 1552.72 809.981C1552.68 786.34 1552.64 762.698 1552.6 739.057C1552.57 714.699 1552.52 690.341 1552.47 665.983C1552.44 652.344 1552.41 638.705 1552.4 625.065C1552.3 543.731 1552.3 543.731 1549.92 462.438C1549.87 461.367 1549.82 460.296 1549.78 459.192C1549.74 458.286 1549.7 457.381 1549.65 456.448C1549.53 451.832 1549.57 447.213 1549.57 442.595C1572.16 442.595 1594.74 442.595 1618.02 442.595C1620.59 481.538 1620.59 481.538 1621.15 496.388C1621.36 501.369 1621.79 506.141 1622.74 511.05C1623.44 510.022 1624.14 508.993 1624.86 507.934C1631.74 497.992 1639.13 489.055 1647.52 480.364C1648.48 479.331 1649.44 478.297 1650.43 477.233C1679.37 446.837 1722.25 434.258 1763.14 433.011ZM1664.04 529.934C1663.21 530.741 1662.37 531.547 1661.51 532.378C1650.58 543.733 1642.46 558.325 1636.97 573.013C1636.67 573.822 1636.37 574.63 1636.05 575.463C1629.96 592.958 1627.92 609.956 1628.05 628.352C1628.05 630.475 1628.05 632.599 1628.05 634.722C1628.05 639.133 1628.06 643.543 1628.09 647.954C1628.12 653.556 1628.12 659.158 1628.1 664.76C1628.1 669.132 1628.1 673.503 1628.12 677.875C1628.12 679.939 1628.13 682.003 1628.12 684.067C1628.08 718.486 1638.59 747.313 1662.86 771.886C1663.55 772.657 1664.24 773.429 1664.94 774.223C1681.82 792.805 1709.39 802.423 1733.67 804.933C1764.24 806.385 1794.04 799.308 1817.47 778.967C1818.42 778.182 1819.37 777.397 1820.36 776.589C1850.56 750.874 1863.73 708.742 1867.03 670.384C1867.47 662.939 1867.5 655.489 1867.48 648.033C1867.48 647.024 1867.47 646.014 1867.47 644.974C1867.32 604.587 1857.77 565.149 1831.63 533.475C1830.85 532.519 1830.08 531.564 1829.28 530.58C1815.97 514.865 1798.01 504.289 1778.52 498.067C1777.35 497.69 1776.18 497.313 1774.97 496.924C1733.62 485.937 1693.54 500.898 1664.04 529.934Z" />
    <path d="M1210.86 280.9C1240.46 280.9 1270.05 280.9 1300.55 280.9C1307.33 297.169 1307.33 297.169 1309.78 304.571C1310.07 305.417 1310.36 306.263 1310.65 307.135C1311.58 309.888 1312.5 312.644 1313.42 315.4C1314.08 317.365 1314.74 319.33 1315.4 321.295C1316.79 325.435 1318.18 329.577 1319.57 333.72C1321.74 340.187 1323.91 346.652 1326.08 353.116C1326.81 355.266 1327.53 357.416 1328.25 359.566C1328.61 360.622 1328.96 361.677 1329.33 362.765C1330.4 365.934 1331.46 369.103 1332.53 372.273C1337.47 386.973 1342.44 401.663 1347.46 416.334C1347.77 417.242 1348.08 418.15 1348.4 419.085C1349.62 422.647 1350.84 426.21 1352.06 429.772C1355.57 440.015 1359.07 450.265 1362.56 460.515C1368.63 478.346 1374.71 496.174 1380.8 514C1386.89 531.812 1392.96 549.627 1399.03 567.443C1404.36 583.071 1409.69 598.697 1415.03 614.322C1421.11 632.134 1427.19 649.948 1433.26 667.764C1438.58 683.392 1443.92 699.019 1449.25 714.643C1454.59 730.271 1459.92 745.901 1465.25 761.533C1466.36 764.781 1467.46 768.03 1468.57 771.279C1468.94 772.346 1469.3 773.413 1469.67 774.512C1470.41 776.667 1471.14 778.821 1471.88 780.976C1474.15 787.637 1476.42 794.299 1478.69 800.961C1480.19 805.384 1481.7 809.807 1483.21 814.23C1483.92 816.311 1484.63 818.392 1485.33 820.473C1486.32 823.36 1487.3 826.246 1488.29 829.132C1488.59 830.021 1488.89 830.909 1489.2 831.825C1491.26 837.832 1493.42 843.793 1495.69 849.722C1496.46 852.143 1496.46 852.143 1496.46 855.683C1469.98 855.683 1443.49 855.683 1416.21 855.683C1402.96 818.118 1390.18 780.404 1377.49 742.647C1376.03 738.301 1374.57 733.954 1373.11 729.608C1372.11 726.634 1371.11 723.659 1370.12 720.685C1365.13 705.846 1359.98 691.074 1354.84 676.285C1254.94 675.701 1254.94 675.701 1153.03 675.105C1151.86 679.389 1150.69 683.673 1149.49 688.088C1148.78 690.377 1148.05 692.66 1147.29 694.932C1146.89 696.116 1146.5 697.3 1146.09 698.52C1145.67 699.763 1145.25 701.006 1144.82 702.287C1144.37 703.624 1143.92 704.961 1143.46 706.339C1142.5 709.198 1141.54 712.057 1140.58 714.915C1138.04 722.495 1135.5 730.079 1132.97 737.663C1132.71 738.423 1132.46 739.183 1132.2 739.966C1127.54 753.902 1122.96 767.864 1118.44 781.844C1110.45 806.507 1102.24 831.096 1094.02 855.683C1068.32 855.683 1042.61 855.683 1016.13 855.683C1018.78 843.734 1018.78 843.734 1020.28 839.375C1020.79 837.886 1020.79 837.886 1021.3 836.367C1021.67 835.318 1022.03 834.27 1022.4 833.189C1022.98 831.49 1022.98 831.49 1023.58 829.756C1024.85 826.028 1026.13 822.304 1027.41 818.579C1028.32 815.933 1029.23 813.287 1030.13 810.641C1032.01 805.151 1033.89 799.662 1035.77 794.174C1039.6 782.985 1043.41 771.786 1047.21 760.586C1048.45 756.949 1049.68 753.312 1050.92 749.675C1057.71 729.716 1064.48 709.752 1071.25 689.787C1078.26 669.129 1085.27 648.475 1092.3 627.823C1099 608.106 1105.7 588.384 1112.39 568.661C1119.61 547.348 1126.86 526.04 1134.11 504.736C1141.08 484.268 1148.03 463.792 1154.98 443.315C1162.4 421.418 1169.84 399.525 1177.29 377.637C1181.61 364.924 1185.93 352.208 1190.22 339.486C1191.77 334.907 1193.32 330.328 1194.87 325.749C1196.12 322.051 1197.37 318.352 1198.62 314.653C1200 310.551 1201.38 306.452 1202.77 302.352C1203.18 301.137 1203.59 299.921 1204.01 298.669C1204.39 297.534 1204.78 296.4 1205.17 295.231C1205.67 293.764 1205.67 293.764 1206.17 292.268C1207.59 288.422 1209.24 284.667 1210.86 280.9ZM1253.34 348.175C1252.45 351.428 1251.55 354.681 1250.65 357.935C1249.82 360.957 1248.98 363.978 1248.14 366.999C1246.01 374.674 1243.9 382.352 1241.89 390.058C1226.79 447.895 1206.54 504.364 1187.13 560.864C1184.45 568.676 1181.77 576.49 1179.1 584.306C1177.84 587.987 1176.57 591.665 1175.3 595.343C1174.54 597.569 1173.78 599.795 1173.02 602.021C1172.49 603.549 1172.49 603.549 1171.95 605.108C1171.63 606.042 1171.31 606.976 1170.99 607.938C1170.71 608.748 1170.43 609.558 1170.14 610.393C1169.4 612.748 1169.4 612.748 1169.55 616.092C1225.63 616.092 1281.72 616.092 1339.5 616.092C1337.27 608.684 1335.03 601.324 1332.58 593.995C1332.1 592.569 1332.1 592.569 1331.62 591.115C1330.58 588.007 1329.54 584.899 1328.51 581.791C1327.96 580.155 1327.96 580.155 1327.4 578.486C1322.54 563.923 1317.63 549.375 1312.66 534.848C1311.67 531.954 1310.68 529.059 1309.7 526.164C1306.47 516.73 1303.25 507.297 1300 497.871C1287.26 460.931 1274.81 424.03 1264.69 386.267C1263.95 383.537 1263.22 380.809 1262.48 378.081C1259.78 368.124 1257.12 358.157 1254.52 348.175C1254.13 348.175 1253.74 348.175 1253.34 348.175Z" />
    <path d="M2945.27 473.06C2965.88 492.333 2980.01 516.541 2989.82 542.842C2990.35 544.229 2990.35 544.229 2990.88 545.643C3005.06 585.731 3000 618.041 3000 663.302C2904.97 663.302 2809.94 663.302 2712.04 663.302C2715.92 696.988 2720.2 726.647 2740.36 754.181C2741.21 755.344 2742.06 756.506 2742.94 757.704C2763.93 784.797 2797.16 798.426 2830.31 802.781C2873.75 807.702 2917.11 800.661 2957.95 785.883C2960.94 784.906 2963.86 784.236 2966.95 783.688C2970.03 794.757 2972.85 805.893 2975.6 817.048C2975.98 818.61 2976.37 820.17 2976.76 821.73C2977.32 823.954 2977.87 826.181 2978.41 828.408C2978.73 829.711 2979.05 831.014 2979.39 832.356C2979.94 835.619 2979.94 835.619 2978.76 839.16C2976.78 840.316 2976.78 840.316 2974.17 841.322C2973.2 841.7 2972.23 842.079 2971.22 842.468C2970.16 842.861 2969.09 843.254 2967.99 843.659C2966.87 844.073 2965.76 844.486 2964.61 844.913C2898.03 868.984 2812.98 874.996 2747.17 845.208C2730.78 837.464 2715.69 828.128 2702.6 815.555C2701.08 814.295 2699.55 813.041 2698.02 811.793C2668.08 785.467 2651.5 745.191 2643.59 706.971C2643.29 705.61 2643.29 705.61 2643 704.221C2636.53 672.573 2637.08 634.693 2643.59 603.109C2643.83 601.928 2644.07 600.748 2644.32 599.531C2651.01 567.67 2661.69 536.222 2681.35 509.869C2681.81 509.244 2682.26 508.62 2682.73 507.976C2711.67 468.423 2752.94 442.941 2801.37 435.382C2803.85 435.016 2806.33 434.668 2808.81 434.333C2810.53 434.098 2810.53 434.098 2812.29 433.858C2859.9 428.543 2909.5 440.456 2945.27 473.06ZM2792.29 493.346C2790.89 493.833 2789.5 494.319 2788.07 494.821C2758.12 506.431 2738.11 531.922 2725.2 560.46C2718.97 574.831 2713.22 592.102 2713.22 607.83C2784.88 607.83 2856.54 607.83 2930.37 607.83C2930.37 572.542 2921.09 539.128 2896.36 513.115C2875.95 493.414 2850.72 487.862 2823.27 488.067C2812.27 488.341 2802.66 489.592 2792.29 493.346Z" />
    <path d="M2485.45 251.395C2510.76 251.395 2536.07 251.395 2562.16 251.395C2562.16 450.81 2562.16 650.225 2562.16 855.684C2536.84 855.684 2511.53 855.684 2485.45 855.684C2485.45 656.268 2485.45 456.853 2485.45 251.395Z" />
    <path d="M624.311 1.17978C635.348 23.2556 622.014 67.472 614.851 89.0948C611.229 99.4528 606.737 109.372 601.888 119.205C601.497 120.008 601.106 120.81 600.703 121.637C589.885 143.638 574.836 162.663 558.221 180.578C557.587 181.277 556.953 181.975 556.299 182.694C528.57 211.954 482.593 237.349 441.734 238.5C438.101 238.526 434.47 238.514 430.836 238.484C428.95 238.476 428.95 238.476 427.026 238.468C423.944 238.454 420.863 238.435 417.781 238.411C413.63 219.931 416.18 198.921 420.141 180.578C420.325 179.695 420.508 178.811 420.698 177.901C428.823 139.989 448.481 106.079 473.249 76.7159C473.959 75.8457 474.67 74.9754 475.402 74.0788C476.989 72.1569 478.651 70.2968 480.33 68.4542C481.109 68.4542 481.888 68.4542 482.69 68.4542C483.001 67.7498 483.311 67.0453 483.631 66.3196C486.182 61.6724 490.432 58.7891 494.492 55.4714C495.083 54.9851 495.675 54.4988 496.284 53.9978C506.245 45.8475 516.492 38.4746 527.537 31.8663C528.334 31.3871 529.13 30.9078 529.951 30.4141C557.772 13.8604 591.46 0.0156995 624.311 1.17978Z" />
  </g>
</svg>
