<svg width="3000" height="1476" viewBox="0 0 3000 1476" fill="none" xmlns="http://www.w3.org/2000/svg">
<g clip-path="url(#clip0_267_1244)">
<path d="M3002.28 1385.11C2934.75 1386.19 2867.23 1385.75 2799.71 1386.38C2766.41 1386.68 2735.43 1377.74 2705.86 1364.32C2667.4 1346.87 2629.95 1327.18 2591.92 1308.75C2542.97 1285.04 2491.43 1272.84 2436.95 1278.2C2386.77 1283.13 2339.86 1299.71 2297.18 1326.21C2249.58 1355.77 2203.69 1388.05 2156.31 1417.98C2114.27 1444.54 2068.89 1463.46 2018.94 1468.96C1996.71 1471.42 1974.18 1474.37 1951.97 1473.29C1879.38 1469.76 1814.21 1448.01 1761.26 1394.75C1721.44 1354.7 1695.3 1306.89 1673.79 1255.76C1666.55 1238.54 1659.48 1221.26 1651.49 1201.98C1660.29 1201.98 1667.01 1201.98 1673.73 1201.98C1705.19 1201.98 1736.67 1202.72 1768.09 1201.61C1780.34 1201.17 1785.82 1206.7 1790.38 1216.17C1802.8 1242 1815.01 1267.94 1828.04 1293.47C1847.16 1330.92 1875.59 1357.77 1917.87 1366.47C1948.01 1372.67 1978.2 1373.41 2009.16 1368.67C2052.38 1362.05 2092.14 1346.9 2129.74 1325.97C2159.93 1309.16 2188.85 1290 2217.95 1271.29C2261.06 1243.57 2303.96 1215.18 2352.25 1197.37C2377.75 1187.96 2404.73 1181.45 2431.61 1177.2C2454.41 1173.59 2478.17 1173.1 2501.23 1174.84C2534.33 1177.33 2566.47 1186.46 2596.43 1200.76C2637.23 1220.22 2676.99 1241.85 2717.53 1261.86C2750.26 1278.02 2783.79 1289.11 2821.74 1287.74C2881.13 1285.6 2940.65 1287.18 3001.2 1287.18C3002.28 1319.46 3002.28 1351.75 3002.28 1385.11Z" fill="url(#paint0_linear_267_1244)"/>
<path d="M2.30273 1288.27C52.0912 1287.19 101.895 1286.45 151.662 1287.49C178.276 1288.04 202.539 1281.03 225.692 1269.67C265.322 1250.21 304.349 1229.53 343.766 1209.64C399.075 1181.72 457.773 1169.01 519.495 1174.71C557.829 1178.26 594.444 1189.77 629.545 1206.02C681.728 1230.18 728.691 1262.96 776.86 1293.81C818.127 1320.24 860.384 1344.76 907.842 1358.83C938.105 1367.81 969.006 1373.89 1000.48 1372.01C1032.41 1370.11 1064.18 1365.62 1090.96 1344.94C1108.74 1331.21 1122.37 1314.12 1132.52 1294.47C1145.5 1269.36 1157.5 1243.73 1169.52 1218.13C1174.76 1206.98 1180.93 1200.98 1195.15 1201.52C1232.28 1202.92 1269.5 1201.99 1309.09 1201.99C1304.42 1213.24 1300.23 1223 1296.3 1232.86C1280.95 1271.37 1264.33 1309.18 1241.26 1343.91C1213.28 1386.04 1178.05 1420.44 1132.91 1443.42C1106.76 1456.73 1078.59 1465.69 1049.24 1468.89C1025.49 1471.48 1001.47 1474.02 977.67 1473.29C937.157 1472.05 898.083 1462.65 860.485 1446.95C804.682 1423.66 757.305 1386.76 707.595 1353.6C669.293 1328.04 629.771 1304.98 585.493 1290.94C546.908 1278.71 507.058 1274.09 467.482 1278.88C439.591 1282.25 411.675 1291.33 385.576 1302.2C348.379 1317.69 312.966 1337.43 276.553 1354.85C234.61 1374.92 191.414 1388.55 143.708 1386.61C97.3631 1384.73 50.882 1386.2 3.38177 1386.2C2.30273 1353.92 2.30273 1321.63 2.30273 1288.27Z" fill="url(#paint1_linear_267_1244)"/>
<path d="M3002.32 1099.6C2998.36 1104.69 2994.06 1108.43 2990.52 1112.78C2979.88 1125.85 2958.06 1133.35 2943 1128.76C2927.22 1123.94 2918.29 1113.51 2917.27 1098.69C2915.82 1077.64 2931.73 1054.67 2951.85 1048.17C2971.87 1041.71 2987.75 1047.9 3001.58 1063.6C3002.32 1075.39 3002.32 1086.96 3002.32 1099.6ZM2936.44 1075.87C2931.13 1086.15 2927.41 1096.44 2938.42 1107.09C2940.56 1094.65 2942.69 1082.22 2944.83 1069.78C2943.89 1069.46 2942.95 1069.13 2942.01 1068.81C2940.42 1070.69 2938.83 1072.58 2936.44 1075.87ZM2964.65 1115.57C2965.53 1106.68 2961.44 1100.38 2954 1093.04C2952.52 1098.94 2952.13 1102.71 2950.61 1105.94C2949.14 1109.06 2946.5 1111.63 2943.1 1116.12C2950.77 1116.12 2957.01 1116.12 2964.65 1115.57ZM2983.87 1079.48C2982.07 1083.06 2981.18 1087.95 2978.29 1089.96C2970.65 1095.26 2973.11 1099.4 2977.9 1104.37C2988.53 1096.99 2988.31 1080.64 2982.75 1067.28C2982.08 1069.23 2984.46 1076.6 2983.87 1079.48ZM2956.93 1076.41C2954.45 1081.63 2956.14 1085.04 2961.83 1084.03C2965.15 1083.44 2967.99 1080.11 2971.04 1078.02C2968.03 1076.48 2965.12 1074.69 2961.97 1073.57C2960.94 1073.2 2959.29 1074.54 2956.93 1076.41ZM2973.19 1064.6C2975.79 1065.04 2980.15 1066.85 2982.75 1067.28C2982.88 1065.77 2981.24 1062.87 2981.36 1061.35C2972.27 1060.66 2963.18 1059.96 2954.09 1059.27C2953.99 1060.61 2953.88 1061.95 2953.78 1063.29C2959.69 1063.62 2965.6 1063.95 2973.19 1064.6Z" fill="url(#paint2_linear_267_1244)"/>
<path d="M1671.65 710.836C1672.65 718.148 1673.56 724.411 1674.59 731.533C1633.32 731.533 1593.58 731.533 1552.12 731.533C1550.53 718.382 1548.67 704.739 1547.25 691.051C1544.07 660.579 1540.94 630.1 1538.12 599.593C1536.24 579.201 1535.28 558.723 1533.3 538.342C1530.63 510.891 1527.23 483.513 1524.43 456.073C1522.55 437.6 1521.32 419.061 1519.54 400.577C1516.64 370.462 1513.4 340.379 1510.55 310.26C1508.72 291.013 1507.53 271.707 1505.71 252.46C1503.58 229.882 1501.56 207.273 1498.47 184.818C1497.44 177.274 1494.76 168.73 1484.42 168.155C1473.41 167.543 1471.2 177.286 1469.58 184.09C1466.45 197.218 1465.71 210.945 1464.36 224.462C1460.44 263.613 1456.58 302.772 1452.95 341.95C1451.09 361.961 1450.09 382.053 1448.12 402.051C1445.41 429.499 1441.99 456.877 1439.17 484.315C1437.31 502.405 1436.1 520.561 1434.35 538.664C1431.45 568.778 1428.23 598.861 1425.38 628.98C1423.56 648.227 1422.27 667.525 1420.53 686.781C1419.19 701.719 1417.52 716.628 1415.97 731.797C1374.87 731.797 1335.11 731.797 1293.45 731.797C1294.59 718.93 1295.36 706.611 1296.83 694.376C1299.49 672.287 1302.59 650.252 1305.44 628.186C1308.48 604.621 1311.61 581.064 1314.41 557.47C1316.99 535.697 1318.99 513.855 1321.63 492.089C1324.25 470.38 1327.51 448.747 1330.19 427.044C1332.88 405.297 1335.08 383.489 1337.72 361.736C1340.49 338.897 1343.6 316.1 1346.45 293.27C1348.97 273.034 1351.32 252.775 1353.78 232.53C1356.82 207.425 1358.95 182.159 1363.25 157.269C1367.31 133.706 1371.49 109.756 1379.48 87.3561C1397.44 37.0053 1440.6 3.73268 1497.49 9.49468C1527.92 12.5763 1552.11 28.7013 1570.14 53.1516C1591.99 82.771 1601.14 116.911 1604.97 153.13C1608.62 187.621 1614.17 221.906 1618.37 256.344C1621.89 285.233 1624.4 314.245 1627.87 343.141C1631.28 371.591 1635.56 399.938 1639.05 428.38C1641.76 450.52 1643.56 472.771 1646.28 494.91C1649.76 523.353 1653.84 551.724 1657.49 580.146C1659.95 599.241 1662.3 618.353 1664.36 637.494C1666.95 661.572 1669.18 685.687 1671.65 710.836Z" fill="url(#paint3_linear_267_1244)"/>
<path d="M2861.68 1128.6C2831.47 1129.62 2801.99 1130.2 2772.51 1129.97C2770.51 1129.95 2766.4 1123.48 2766.92 1120.67C2776.1 1070.17 2785.85 1019.77 2795.46 969.347C2795.99 966.542 2796.32 963.698 2794.14 959.722C2791.61 964.071 2788.7 968.245 2786.62 972.796C2763.93 1022.27 2741.57 1071.89 2718.42 1121.14C2716.39 1125.46 2709.59 1129.86 2704.77 1130.14C2686.42 1131.19 2667.96 1130.44 2649.55 1130.63C2642.67 1130.7 2638.96 1128.34 2638.2 1120.96C2635.47 1094.32 2632.27 1067.73 2629.38 1041.11C2625.93 1009.3 2622.63 977.48 2616.79 945.58C2615.64 955.831 2614.9 966.144 2613.29 976.32C2605.63 1024.74 2597.9 1073.15 2589.55 1121.45C2588.95 1124.91 2583.27 1129.97 2579.83 1130.07C2553.38 1130.8 2526.9 1130.51 2500.42 1130.5C2491.43 1130.5 2490.81 1124.95 2492.06 1117.97C2502.1 1061.78 2512.11 1005.58 2522.1 949.372C2530.08 904.486 2538.29 859.638 2545.73 814.662C2547.23 805.613 2551.34 803.486 2559.46 803.539C2594.75 803.772 2630.06 803.868 2665.35 803.496C2675.22 803.392 2679.02 807.67 2679.93 816.906C2685.28 871.362 2690.82 925.799 2696.41 980.23C2696.88 984.731 2698.23 989.141 2701.56 994.496C2704.88 987.982 2708.44 981.58 2711.48 974.936C2736.49 920.206 2761.27 865.371 2786.64 810.811C2788.24 807.386 2794.2 804.039 2798.17 803.983C2835 803.46 2871.84 803.742 2908.67 803.614C2917.5 803.583 2919.81 807.167 2918.26 815.822C2901.94 907.09 2885.95 998.416 2869.79 1089.71C2867.53 1102.5 2864.88 1115.22 2861.68 1128.6Z" fill="url(#paint4_linear_267_1244)"/>
<path d="M201.547 806.821C206.501 805.23 210.918 803.742 215.34 803.728C267.137 803.566 318.957 802.752 370.722 804.065C390.775 804.573 411.321 807.942 430.562 813.649C473.853 826.489 479.407 854.625 472.197 892.843C467.711 916.621 451.535 933.434 433.428 948.313C430.512 950.709 427.536 953.031 423.103 956.575C444.124 965.896 456.57 980.838 459.978 1002.52C466.396 1043.35 443.098 1090.07 406.623 1109.12C383.105 1121.4 357.739 1127.51 331.442 1128.12C273.962 1129.45 216.461 1129.85 158.967 1130.55C154.491 1130.61 150.008 1130.04 143.549 1129.65C146.61 1111.19 149.315 1093.93 152.35 1076.73C167.46 991.085 182.644 905.453 197.867 819.828C198.601 815.699 199.95 811.68 201.547 806.821ZM348.642 998.954C326.293 997.668 303.951 996.185 281.584 995.39C279.274 995.307 275.236 998.977 274.692 1001.49C271.706 1015.28 269.522 1029.24 267.143 1043.15C266.097 1049.27 268.212 1052.47 275.023 1052.34C290.302 1052.06 305.71 1053.31 320.828 1051.71C330.328 1050.7 340.393 1047.19 348.439 1042.05C362.64 1032.96 362.896 1010.45 348.642 998.954ZM368.749 896.325C365.896 886.143 357.887 882.622 348.64 882.251C333.723 881.654 318.742 881.578 303.845 882.358C300.594 882.529 295.712 886.709 294.801 889.949C291.807 900.589 290.132 911.619 288.273 922.554C287.116 929.358 290.512 932.544 297.318 932.503C310.343 932.425 323.4 933.021 336.386 932.297C355.606 931.225 368.033 917.769 368.749 896.325Z" fill="url(#paint5_linear_267_1244)"/>
<path d="M709.492 805.809C738.958 808.48 767.67 811.088 788.399 833.938C794.259 840.398 799.336 849.589 800.364 858.062C804.579 892.769 799.116 925.897 774.382 952.424C765.027 962.457 752.024 969.089 740.294 977.553C741.781 978.442 743.881 979.831 746.097 981.003C770.345 993.825 778.704 1010.74 774.444 1037.67C771.096 1058.83 767.721 1080 765.203 1101.27C764.644 1105.99 767.668 1111.12 768.973 1116.08C769.77 1119.1 771.934 1123.05 770.789 1124.99C769.235 1127.63 765.12 1130.26 762.07 1130.3C731.783 1130.68 701.488 1130.47 671.196 1130.6C663.957 1130.63 660.188 1127.51 660.901 1120.26C662.583 1103.14 664.691 1086.07 666.351 1068.95C667.199 1060.21 668.014 1051.41 667.839 1042.65C667.593 1030.36 660.937 1021.57 648.798 1020.3C631.361 1018.47 613.697 1018.12 596.164 1018.54C593.063 1018.62 588.246 1025.18 587.418 1029.38C581.571 1059.05 576.219 1088.84 571.495 1118.71C570.146 1127.24 566.881 1130.73 558.297 1130.66C529.54 1130.42 500.778 1130.41 472.022 1130.68C463.217 1130.77 460.877 1127.88 462.478 1118.97C477.78 1033.8 492.697 948.562 507.71 863.343C510.433 847.884 513.449 832.464 515.648 816.929C516.927 807.892 520.386 803.433 530.313 803.493C584.378 803.817 638.446 803.603 692.512 803.761C697.822 803.776 703.129 805.063 709.492 805.809ZM696.524 913.701C698.809 894.509 689.154 883.36 667.903 882.202C653.004 881.39 638.025 882.172 623.089 881.882C615.985 881.745 612.775 884.811 611.679 891.712C609.462 905.686 606.832 919.599 604.122 933.489C602.605 941.259 606.039 944.106 613.318 944.045C626.343 943.937 639.5 945.1 652.362 943.631C671.102 941.491 690.561 938.916 696.524 913.701Z" fill="url(#paint6_linear_267_1244)"/>
<path d="M1489.16 936.555C1496.42 894.826 1503.57 854.09 1510.54 813.323C1511.74 806.312 1515.66 803.648 1522.42 803.658C1572.67 803.733 1622.95 802.452 1673.13 804.342C1694.17 805.134 1715.79 810.279 1735.68 817.501C1774.78 831.701 1796.95 861.026 1800.5 902.879C1805.54 962.418 1791.29 1017.08 1755 1064.84C1727.58 1100.93 1688.95 1120.42 1645.08 1125.19C1601.44 1129.93 1557.2 1129.18 1513.22 1130.53C1497.51 1131.01 1481.77 1130.5 1466.05 1130.61C1458.39 1130.66 1454.96 1128.54 1456.58 1119.65C1467.65 1058.99 1478.25 998.251 1489.16 936.555ZM1685.81 903.814C1678.42 898.083 1671.82 889.728 1663.46 887.227C1650.53 883.358 1636.38 883.682 1622.8 881.864C1611.23 880.314 1606.44 885.408 1604.62 896.653C1599.1 930.682 1592.68 964.563 1586.74 998.525C1583.73 1015.72 1581.01 1032.96 1578.19 1049.97C1605.92 1057.18 1639.07 1048.09 1657.93 1030.46C1678.3 1011.41 1685.27 986.603 1689.73 960.664C1692.92 942.116 1695.22 923.356 1685.81 903.814Z" fill="url(#paint7_linear_267_1244)"/>
<path d="M2291.52 803.984C2328.88 794.099 2365.59 792.216 2402.41 801.132C2459.15 814.87 2496.88 862.534 2498.06 921.091C2499.3 982.128 2480.42 1036.02 2438.18 1080.16C2409.07 1110.58 2372.26 1128.56 2330.47 1134.97C2301.13 1139.47 2271.78 1139.35 2242.7 1131.87C2189.32 1118.12 2154.7 1078.31 2150.79 1023.15C2147.13 971.71 2157.47 923.307 2187 879.984C2212.59 842.447 2247.83 818.172 2291.52 803.984ZM2359.28 880.664C2339.43 874.138 2321.44 877.373 2303.48 888.325C2272.51 907.216 2248.77 984.567 2263.36 1024.51C2272.06 1048.34 2292.56 1060.94 2317.45 1056C2347.63 1050.01 2366.02 1030.13 2375.56 1002.7C2382.28 983.357 2387.76 962.74 2388.73 942.445C2389.88 918.717 2386.29 894.371 2359.28 880.664Z" fill="url(#paint8_linear_267_1244)"/>
<path d="M931.665 807.367C981.122 791.606 1029.69 789.319 1077.11 810.564C1121.95 830.655 1142.46 868.583 1146.15 915.482C1150.04 964.727 1137.69 1010.66 1109.93 1051.86C1078.43 1098.59 1034.07 1126.04 978.878 1134.9C940.183 1141.11 901.675 1139.74 865.247 1122.33C829.186 1105.09 808.376 1075.87 801.868 1037.31C788.606 958.738 819.77 870.421 893.509 825.305C905.173 818.169 918.341 813.494 931.665 807.367ZM1022.22 890.013C1000.19 870.927 963.308 872.6 943.237 895.937C912.708 931.435 902.73 973.663 911.092 1019.33C912.974 1029.6 920.512 1040.9 928.801 1047.54C949.767 1064.33 988.356 1056.31 1006.14 1034.02C1024.48 1011.02 1032.21 984.311 1036.58 955.784C1040.18 932.267 1037.2 910.831 1022.22 890.013Z" fill="url(#paint9_linear_267_1244)"/>
<path d="M2039.05 1120.67C1973.44 1145.81 1910.08 1148.4 1851.53 1105.12C1827.24 1087.16 1815.85 1060.03 1812.46 1030.67C1807.3 985.966 1813.93 942.546 1835.23 902.584C1868.97 839.267 1920.63 801.817 1993.66 796.519C2023.42 794.36 2052.38 797.127 2080.49 807.531C2130.84 826.163 2150.61 873.476 2147.58 921.556C2147.39 924.616 2141.59 929.732 2138.31 929.81C2110.32 930.473 2082.3 930.143 2054.29 930.226C2047.57 930.246 2044.73 927.195 2044.47 920.485C2043.75 901.649 2036.25 886.692 2017.47 880.42C1996.78 873.512 1977.4 876.626 1960.45 891.178C1936.87 911.416 1927.87 939.024 1922.88 968.104C1920.33 983 1918.19 998.703 1920.12 1013.49C1924.91 1050.3 1958.32 1067.26 1992.44 1051.79C2009.8 1043.93 2021.2 1030.24 2027.9 1012.85C2031 1004.8 2035.52 1001.45 2044.1 1001.55C2070.95 1001.87 2097.81 1001.85 2124.67 1001.57C2134.12 1001.47 2137.28 1004.36 2133.74 1013.85C2116.03 1061.39 2087.11 1098.9 2039.05 1120.67Z" fill="url(#paint10_linear_267_1244)"/>
<path d="M1386.19 872.521C1401.17 955.245 1415.91 1037 1430.96 1118.71C1432.61 1127.68 1429.49 1130.66 1421 1130.62C1392.25 1130.48 1363.49 1130.49 1334.74 1130.61C1327.83 1130.64 1323.84 1128.33 1323.79 1120.75C1323.76 1116.96 1322.7 1113.19 1322.13 1109.41C1318.67 1086.85 1318.67 1086.85 1295.54 1086.85C1273.31 1086.85 1251.06 1087.21 1228.84 1086.68C1219.83 1086.47 1214.25 1089.57 1211.2 1097.93C1210.02 1101.15 1207.45 1103.98 1206.79 1107.25C1202.58 1128.16 1189.04 1132.34 1169.72 1130.96C1147.97 1129.4 1126.03 1130.69 1104.18 1130.55C1091.23 1130.47 1089.81 1128.51 1095.7 1117.5C1126.97 1059.09 1158.55 1000.84 1189.82 942.429C1211.52 901.904 1233.24 861.385 1254.2 820.477C1260.31 808.557 1267.35 802.63 1281.61 803.283C1307.63 804.474 1333.76 804.137 1359.8 803.38C1370.6 803.066 1374.8 807.274 1376.36 817.266C1379.19 835.42 1382.78 853.456 1386.19 872.521ZM1303.51 942.287C1302.42 933.684 1301.32 925.08 1300.23 916.477C1298.82 916.379 1297.41 916.281 1295.99 916.184C1280.97 949.002 1265.95 981.82 1249.76 1017.19C1270.71 1017.19 1288.89 1017.44 1307.05 1016.8C1308.79 1016.73 1311.99 1010.94 1311.7 1008.1C1309.47 986.798 1306.54 965.573 1303.51 942.287Z" fill="url(#paint11_linear_267_1244)"/>
</g>
<defs>
<linearGradient id="paint0_linear_267_1244" x1="-8.07242" y1="1324.02" x2="3002.28" y2="1324.02" gradientUnits="userSpaceOnUse">
<stop stop-color="#07CBFE"/>
<stop offset="0.55" stop-color="#309FFB"/>
<stop offset="1" stop-color="#4887F9"/>
</linearGradient>
<linearGradient id="paint1_linear_267_1244" x1="2.30273" y1="1324.03" x2="2990.82" y2="1292.95" gradientUnits="userSpaceOnUse">
<stop stop-color="#07CBFE"/>
<stop offset="0.55" stop-color="#309FFB"/>
<stop offset="1" stop-color="#4887F9"/>
</linearGradient>
<linearGradient id="paint2_linear_267_1244" x1="-10.3672" y1="1086.85" x2="3002.32" y2="1087.88" gradientUnits="userSpaceOnUse">
<stop stop-color="#07CBFE"/>
<stop offset="0.55" stop-color="#309FFB"/>
<stop offset="1" stop-color="#4887F9"/>
</linearGradient>
<linearGradient id="paint3_linear_267_1244" x1="-2.29289" y1="370.728" x2="2938.98" y2="333.895" gradientUnits="userSpaceOnUse">
<stop stop-color="#07CBFE"/>
<stop offset="0.55" stop-color="#309FFB"/>
<stop offset="1" stop-color="#4887F9"/>
</linearGradient>
<linearGradient id="paint4_linear_267_1244" x1="-17.2415" y1="967.114" x2="2988.53" y2="967.114" gradientUnits="userSpaceOnUse">
<stop stop-color="#07CBFE"/>
<stop offset="0.55" stop-color="#309FFB"/>
<stop offset="1" stop-color="#4887F9"/>
</linearGradient>
<linearGradient id="paint5_linear_267_1244" x1="9.21167" y1="967.108" x2="3002.28" y2="967.108" gradientUnits="userSpaceOnUse">
<stop stop-color="#07CBFE"/>
<stop offset="0.55" stop-color="#309FFB"/>
<stop offset="1" stop-color="#4887F9"/>
</linearGradient>
<linearGradient id="paint6_linear_267_1244" x1="1.14506" y1="967.114" x2="3021.91" y2="967.114" gradientUnits="userSpaceOnUse">
<stop stop-color="#07CBFE"/>
<stop offset="0.55" stop-color="#309FFB"/>
<stop offset="1" stop-color="#4887F9"/>
</linearGradient>
<linearGradient id="paint7_linear_267_1244" x1="5.7716" y1="967.12" x2="3003.47" y2="967.12" gradientUnits="userSpaceOnUse">
<stop stop-color="#07CBFE"/>
<stop offset="0.55" stop-color="#309FFB"/>
<stop offset="1" stop-color="#4887F9"/>
</linearGradient>
<linearGradient id="paint8_linear_267_1244" x1="5.74231" y1="967.113" x2="3021.85" y2="967.113" gradientUnits="userSpaceOnUse">
<stop stop-color="#07CBFE"/>
<stop offset="0.55" stop-color="#309FFB"/>
<stop offset="1" stop-color="#4887F9"/>
</linearGradient>
<linearGradient id="paint9_linear_267_1244" x1="-3.44458" y1="967.11" x2="3008.03" y2="967.11" gradientUnits="userSpaceOnUse">
<stop stop-color="#07CBFE"/>
<stop offset="0.55" stop-color="#309FFB"/>
<stop offset="1" stop-color="#4887F9"/>
</linearGradient>
<linearGradient id="paint10_linear_267_1244" x1="5.72154" y1="967.112" x2="2988.48" y2="967.112" gradientUnits="userSpaceOnUse">
<stop stop-color="#07CBFE"/>
<stop offset="0.55" stop-color="#309FFB"/>
<stop offset="1" stop-color="#4887F9"/>
</linearGradient>
<linearGradient id="paint11_linear_267_1244" x1="14.9626" y1="992.439" x2="2983.91" y2="967.115" gradientUnits="userSpaceOnUse">
<stop stop-color="#07CBFE"/>
<stop offset="0.55" stop-color="#309FFB"/>
<stop offset="1" stop-color="#4887F9"/>
</linearGradient>
<clipPath id="clip0_267_1244">
<rect width="3000" height="1476" fill="white"/>
</clipPath>
</defs>
</svg>
