<svg width="4000" height="845" viewBox="0 0 4000 845" fill="none" xmlns="http://www.w3.org/2000/svg">
<g clip-path="url(#clip0_267_1261)">
<path d="M2.36914 152.594C6.21417 148.033 10.1971 144.722 13.8795 141.106C27.3463 127.879 44.2671 124.507 61.9517 131.684C77.3844 137.948 87.6042 153.45 87.6075 171.098C87.639 340.075 87.6357 509.051 87.6134 678.028C87.6109 696.735 76.4841 713.416 60.505 718.996C42.1689 725.399 23.6266 720.338 10.9956 705.686C8.83721 703.183 6.04964 701.221 2.96094 699.813C2.36914 518.312 2.36914 336.007 2.36914 152.594Z" fill="url(#paint0_linear_267_1261)"/>
<path d="M4002.37 394.189C3999.86 398.537 3996.39 401.428 3994.99 405.107C3963.2 488.688 3931.82 572.426 3899.9 655.955C3892.6 675.046 3884.21 693.632 3868.48 708.098C3854.65 720.817 3838.46 723.789 3821.31 720.863C3816.55 720.05 3809.45 711.622 3809.84 707.274C3810.34 701.861 3817.59 692.596 3821.76 692.688C3856.97 693.462 3862.06 664.74 3874.95 642.355C3888.15 619.446 3876.17 600.604 3868.71 580.921C3845.94 520.883 3822.54 461.087 3799.62 401.103C3796.98 394.197 3794.42 386.666 3794.59 379.494C3794.71 374.75 3799.19 366.885 3802.8 366.215C3808.17 365.215 3816.25 367.69 3819.98 371.678C3824.8 376.828 3826.76 384.808 3829.42 391.774C3851.05 448.458 3872.54 505.194 3894.14 561.891C3895.06 564.321 3896.59 566.521 3899.23 571.405C3902.77 563.367 3905.64 557.638 3907.87 551.67C3928.69 495.941 3949.31 440.141 3970.17 384.428C3977.8 364.049 3980.84 362.495 4001.42 366.861C4002.37 375.617 4002.37 384.358 4002.37 394.189Z" fill="url(#paint1_linear_267_1261)"/>
<path d="M1336.69 847.367C1335.7 566.436 1335.7 285.505 1335.7 3.47028C1338.99 2.36719 1342.28 2.36719 1346.56 2.36719C1347.54 283.298 1347.54 564.23 1347.54 846.264C1344.26 847.367 1340.97 847.367 1336.69 847.367Z" fill="url(#paint2_linear_267_1261)"/>
<path d="M1784.83 531.458C1778.58 556.578 1768 578.17 1749.8 595.698C1733 611.877 1712.66 622.526 1690.03 623.922C1647.21 626.562 1604.21 626.515 1561.28 626.784C1549.34 626.859 1546.32 618.122 1546.35 607.068C1546.58 514.794 1546.48 422.519 1546.48 330.245C1546.48 312.5 1546.31 294.752 1546.58 277.011C1546.76 264.592 1550.62 260.539 1562.91 260.478C1601.97 260.283 1641.22 258.052 1680.05 261.036C1727.19 264.658 1761.64 287.811 1777.78 334.481C1785.12 355.679 1788.24 378.831 1789.93 401.347C1791.96 428.272 1791.02 455.484 1790.18 482.534C1789.68 498.566 1786.88 514.527 1784.83 531.458ZM1640 596.471C1647.1 596.463 1654.23 596.847 1661.3 596.384C1708.76 593.273 1738.83 576.098 1751.25 524.949C1763.79 473.357 1763.5 420.868 1753.19 369.134C1743.53 320.702 1719.41 290.1 1656.15 291.087C1636.43 291.395 1616.69 291.113 1596.97 291.142C1579.71 291.168 1579.65 291.193 1579.64 307.973C1579.61 353.715 1579.63 399.457 1579.63 445.199C1579.63 490.941 1579.9 536.686 1579.44 582.424C1579.33 593.342 1583.11 597.129 1593.85 596.633C1608.42 595.96 1623.04 596.469 1640 596.471Z" fill="url(#paint3_linear_267_1261)"/>
<path d="M2323.27 366.877C2323.28 336.126 2323.09 306.557 2323.38 276.992C2323.55 260.26 2329.76 253.445 2342.92 256.196C2347.08 257.063 2353.26 262.544 2353.38 266.091C2354.47 297.307 2354.4 328.563 2354.64 359.807C2354.71 368.647 2354.65 377.489 2354.65 389.454C2360.05 386.065 2363.08 384.716 2365.43 382.608C2408.65 343.828 2500.96 351.557 2520.15 430.28C2530.48 472.657 2531.24 515.629 2520.88 557.776C2506.37 616.825 2463.34 635.755 2408.97 628.353C2388.83 625.61 2388.96 624.661 2355.54 599.562C2354.94 604.534 2355.55 609.103 2353.73 612.268C2350.71 617.507 2346.61 624.989 2342.06 625.692C2337.26 626.434 2329.44 621.569 2326.53 616.913C2323.31 611.771 2323.4 604.086 2323.39 597.505C2323.2 521.024 2323.27 444.543 2323.27 366.877ZM2386.28 589.382C2423.22 610.574 2475.07 599.749 2488.6 555.415C2500.57 516.176 2500.35 475.976 2488.73 436.62C2478.62 402.427 2449.41 389.46 2422.02 390.903C2388.53 392.666 2363.29 412.914 2359.75 443.68C2356.44 472.427 2356.35 501.72 2357.16 530.708C2357.79 553.271 2365.49 574.012 2386.28 589.382Z" fill="url(#paint4_linear_267_1261)"/>
<path d="M2945.27 497.929C2921.28 426.901 2897.6 356.757 2874.02 286.575C2872.41 281.766 2869.77 276.189 2870.92 271.841C2872.41 266.181 2876.1 259.284 2880.87 256.752C2887.2 253.397 2894.99 255.306 2898.81 263.235C2901.03 267.834 2903.15 272.522 2904.78 277.35C2928.12 346.339 2951.33 415.373 2974.67 484.364C2982.36 507.121 2990.3 529.798 2998.22 552.481C2999.33 555.668 3000.95 558.677 3003.7 564.787C3006.56 558.408 3008.52 554.871 3009.79 551.104C3037.49 469.019 3065.1 386.899 3092.8 304.812C3096.95 292.513 3101.21 280.236 3105.93 268.149C3110.29 256.986 3118.84 252.368 3128.19 256.522C3137.34 260.59 3138.74 268.787 3135.86 277.486C3123.01 316.359 3110.07 355.205 3096.88 393.962C3079.99 443.548 3062.83 493.042 3045.78 542.569C3037.96 565.27 3029.94 587.905 3022.32 610.672C3019.32 619.649 3014.56 626.277 3004.45 626.973C2994.07 627.686 2988.25 621.198 2985.12 612.591C2975.17 585.207 2965.69 557.655 2956.1 530.138C2952.48 519.735 2949.09 509.251 2945.27 497.929Z" fill="url(#paint5_linear_267_1261)"/>
<path d="M2806.4 596.951C2820.49 589.107 2834.09 582.129 2846.63 573.606C2854.18 568.471 2860.63 562.344 2869.5 569.719C2875.25 574.501 2873.54 586.766 2866.71 594.154C2830.55 633.309 2764.03 642.274 2718.93 613.952C2697.22 600.322 2685.29 579.33 2679.87 555.464C2670.88 515.9 2670.15 475.695 2679.71 436.066C2691.74 386.186 2729.01 360.852 2780.22 361.329C2839.43 361.88 2873.12 405.067 2877.48 459.481C2878.2 468.484 2879.67 477.489 2879.58 486.481C2879.45 499.493 2874.45 504.072 2861.33 504.104C2814.39 504.218 2767.44 504.132 2720.5 504.176C2704.94 504.19 2703.13 505.818 2704.77 521.169C2708.19 553.093 2717.5 581.627 2751.02 594.651C2768.82 601.564 2787.07 601.394 2806.4 596.951ZM2841.45 432.899C2825.89 395.961 2795.66 385.623 2760.47 391.682C2719.49 398.737 2706.48 435.66 2705.15 467.976C2705.05 470.415 2710.09 474.846 2713.17 475.283C2720.91 476.38 2728.89 475.749 2736.78 475.751C2769.9 475.756 2803.03 475.757 2836.15 475.713C2842.82 475.704 2849.72 475.307 2848.17 465.774C2846.47 455.348 2844.08 445.034 2841.45 432.899Z" fill="url(#paint6_linear_267_1261)"/>
<path d="M3288.41 586.129C3294.61 581.165 3300.49 577.071 3305.46 572.07C3312.01 565.47 3319.5 562.872 3326.14 569.68C3332.58 576.292 3331.6 585.073 3325.56 592.158C3308.75 611.865 3287.07 623.289 3261.75 627.586C3236.48 631.875 3211.68 630.967 3187.67 620.241C3158.78 607.336 3143.45 583.53 3136.68 554.513C3127.55 515.339 3127.39 475.438 3136.76 436.217C3148.71 386.22 3185.98 360.786 3237.21 361.337C3294.49 361.953 3328.85 402.358 3334.41 457.178C3335.33 466.172 3336.62 475.177 3336.73 484.19C3336.93 499.569 3332.28 504.095 3317.14 504.122C3270.57 504.206 3224 504.132 3177.43 504.176C3162.11 504.19 3161.3 505.093 3161.67 520.161C3162.6 558.671 3183.65 589.444 3216.1 597.327C3241.06 603.391 3265.34 600.288 3288.41 586.129ZM3275.91 402.749C3258.09 389.672 3237.71 387.895 3217.13 391.712C3178.38 398.899 3162.99 433.991 3161.78 467.093C3161.49 474.932 3166.86 475.759 3172.9 475.744C3189.87 475.705 3206.84 475.755 3223.81 475.753C3247.09 475.751 3270.38 475.766 3293.66 475.699C3299.87 475.682 3306.15 475.331 3305.4 466.489C3303.35 442.316 3297.4 419.852 3275.91 402.749Z" fill="url(#paint7_linear_267_1261)"/>
<path d="M2036.5 539.064C2030.37 556.617 2026.31 574.259 2017.81 589.403C2004.68 612.777 1981.97 624.604 1955.92 628.279C1920.15 633.324 1886.32 628.727 1860.05 600.717C1845.68 585.399 1838.04 566.356 1834.64 545.715C1828.57 508.885 1828.07 472.125 1836.58 435.541C1850.77 374.607 1908.38 351.249 1961.84 363.546C2008.33 374.239 2032.33 410.659 2036.19 454.529C2038.61 482.162 2036.61 510.185 2036.5 539.064ZM1861.75 473.18C1862.52 493.617 1862.25 514.156 1864.27 534.468C1868.06 572.598 1896.98 599.115 1934.08 600.073C1968.71 600.967 1996.69 577.028 2004 540.228C2009.5 512.517 2009.9 484.605 2005.13 456.884C2001.48 435.653 1994.07 416.479 1974.84 402.942C1941.8 379.678 1891.36 390.517 1874.44 427.037C1868.11 440.683 1866.06 456.307 1861.75 473.18Z" fill="url(#paint8_linear_267_1261)"/>
<path d="M2154.23 598.004C2183.37 603.777 2207.48 597.088 2225.81 574.1C2236.89 560.196 2240.13 543.507 2240.26 526.369C2240.6 478.666 2240.12 430.955 2240.73 383.257C2240.81 377.485 2244.11 369.934 2248.5 366.441C2256 360.469 2267.34 365.699 2270.02 375.202C2271.16 379.281 2271.11 383.778 2271.12 388.085C2271.18 459.052 2271.18 530.019 2271.11 600.986C2271.11 605.679 2270.77 610.45 2269.88 615.046C2268.31 623.154 2263.01 627.574 2254.74 626.789C2246.48 626.003 2240.7 621.898 2240.43 612.56C2240.32 608.83 2239.82 605.112 2239.29 598.99C2223.37 615.565 2206.56 626.744 2185.85 628.064C2169.56 629.102 2152.47 629.394 2136.78 625.657C2104.52 617.974 2080.81 588.033 2079.72 553.936C2077.91 497.656 2077.64 441.322 2077.31 385.008C2077.27 379.276 2079.68 371.842 2083.69 368.285C2087.17 365.206 2095.97 364.172 2099.8 366.511C2104 369.078 2107.33 376.514 2107.4 381.876C2107.99 427.209 2107.51 472.554 2107.92 517.89C2108.03 529.221 2109.63 540.633 2111.57 551.831C2115.72 575.761 2129.01 591.855 2154.23 598.004Z" fill="url(#paint9_linear_267_1261)"/>
<path d="M3669.97 281.125C3679.48 265.45 3694.22 260.227 3710.25 258.361C3719.97 257.229 3729.94 257.946 3739.79 258.177C3748.84 258.389 3753.57 263.296 3753.49 272.402C3753.4 281.601 3748.32 285.822 3739.39 286.341C3731.56 286.796 3723.59 286.818 3715.97 288.411C3697.57 292.255 3691.86 298.247 3690.27 316.906C3689.14 330.211 3689.92 343.68 3689.9 357.076C3689.89 364.103 3693.91 366.803 3700.49 366.8C3712.71 366.796 3724.94 366.774 3737.16 366.945C3746.17 367.071 3753.89 368.877 3753.61 380.542C3753.35 391.522 3746.21 393.047 3737.47 392.931C3727.61 392.8 3717.75 392.886 3707.89 392.919C3690.25 392.978 3689.78 393.384 3689.78 410.678C3689.74 473.735 3689.77 536.792 3689.75 599.849C3689.75 604.182 3689.93 608.554 3689.43 612.84C3688.44 621.431 3683.49 626.7 3674.73 626.83C3665.37 626.969 3660.26 621.546 3659.24 612.383C3658.89 609.263 3658.99 606.086 3658.98 602.935C3658.97 511.108 3658.5 419.275 3659.45 327.458C3659.61 312.236 3666.01 297.079 3669.97 281.125Z" fill="url(#paint10_linear_267_1261)"/>
<path d="M2571.93 416.582C2571.94 368.914 2571.99 322.43 2571.92 275.945C2571.9 265.935 2574.28 257.59 2585.77 256.039C2595.01 254.791 2601.07 259.035 2602.41 268.533C2603.01 272.79 2602.71 277.183 2602.71 281.515C2602.72 373.696 2602.69 465.878 2602.79 558.059C2602.8 564.301 2603.77 570.552 2604.46 576.78C2605.93 590.055 2614.08 595.819 2626.79 596.461C2629.52 596.599 2632.47 596.627 2634.92 597.65C2642.14 600.668 2648.55 604.905 2647.19 614.126C2645.9 622.878 2639.87 627.049 2631.41 627.066C2590.41 627.149 2573.68 616.152 2572.27 567.847C2570.81 517.859 2571.94 467.796 2571.93 416.582Z" fill="url(#paint11_linear_267_1261)"/>
<path d="M3415.04 518.361C3415.03 546.742 3415.25 573.943 3414.85 601.135C3414.77 607.259 3414.04 614.37 3410.81 619.142C3408.15 623.087 3400.67 626.972 3396.58 625.934C3391.82 624.725 3388.21 618.303 3384.57 613.764C3383.59 612.536 3384.27 609.937 3384.27 607.967C3384.26 533.076 3384.22 458.184 3384.29 383.292C3384.31 369.402 3389.16 363.028 3399.6 365.169C3404.57 366.187 3409.55 371.334 3412.66 375.886C3415.29 379.745 3415.23 385.438 3416.05 388.961C3429.27 380.861 3441.49 370.398 3455.64 365.395C3476.92 357.874 3499.16 359.91 3520.02 369.706C3531.07 374.891 3535.13 382.582 3531.8 390.933C3528.03 400.401 3520.5 402.462 3508.33 399.368C3494.77 395.926 3480.6 390.626 3467.19 391.816C3440.58 394.18 3423.5 413.15 3417.83 441.774C3416.08 450.587 3415.39 459.699 3415.15 468.698C3414.74 484.848 3415.04 501.017 3415.04 518.361Z" fill="url(#paint12_linear_267_1261)"/>
<path d="M3583.99 626.719C3571.3 622.801 3571.43 612.841 3571.42 603.366C3571.3 539.938 3571.35 476.511 3571.35 413.084C3571.35 402.841 3571.13 392.59 3571.47 382.357C3571.86 370.596 3577.53 364.674 3587.63 364.697C3597.01 364.719 3602.05 370.454 3602.06 382.232C3602.15 457.478 3602.17 532.724 3602.04 607.97C3602.01 621.54 3598.36 625.12 3583.99 626.719Z" fill="url(#paint13_linear_267_1261)"/>
<path d="M3589.78 255.725C3605.88 259.91 3611.77 269.375 3608.86 284.858C3606.86 295.476 3596.32 302.877 3585.18 301.484C3572.17 299.857 3563.93 290.268 3564.35 277.244C3564.77 264.344 3573.35 256.785 3589.78 255.725Z" fill="url(#paint14_linear_267_1261)"/>
<path d="M350.485 255.623C321.216 234.999 289.737 222.363 254.698 220.264C228.042 218.667 201.296 217.894 174.593 217.933C145.88 217.975 129.679 199.452 128.066 174.499C126.492 150.147 146.822 127.96 172.34 128.169C211.55 128.491 251.273 127.603 289.804 133.544C336.217 140.701 378.909 160.447 416.246 190.008C463.73 227.603 498.31 274.842 517.306 332.219C524.668 354.455 527.228 378.468 530.315 401.891C538.095 460.902 523.571 515.526 495.266 567.003C470.684 611.707 436.793 647.462 393.428 674.746C362.019 694.508 328.613 708.999 292.242 715.083C267.309 719.254 241.799 720.615 216.482 721.631C198.543 722.352 180.355 721.546 162.532 719.355C138.762 716.434 125.764 692.141 128.296 672.012C130.822 651.93 146.272 632.303 171.576 632.019C189.335 631.819 207.097 631.964 224.858 631.976C285.894 632.017 339.147 611.735 381.92 568.133C412.843 536.611 432.198 498.576 438.398 453.995C446.293 397.218 432.257 346.128 398.501 301.027C385.632 283.833 367.207 270.792 350.485 255.623Z" fill="url(#paint15_linear_267_1261)"/>
<path d="M753.131 362.293C774.052 408.432 794.826 453.662 815.517 498.93C840.062 552.63 864.798 606.246 888.908 660.141C898.242 681.005 888.957 705.597 869.247 715.944C847.508 727.356 822.674 721.961 810.323 700.649C798.752 680.681 789.674 659.245 779.928 638.256C769.357 615.494 759.337 592.477 748.979 569.615C726.689 520.413 704.431 471.197 681.977 422.07C665.939 386.979 649.463 352.088 633.438 316.991C613.86 274.111 594.446 231.156 575.174 188.138C566.865 169.593 577.483 142.397 596.907 132.591C615.762 123.071 642.047 128.085 651.353 145.586C665.309 171.833 678.133 198.709 690.703 225.66C705.855 258.149 720.162 291.031 734.993 323.671C740.755 336.349 746.95 348.83 753.131 362.293Z" fill="url(#paint16_linear_267_1261)"/>
<path d="M980.448 499.492C976.392 508.862 972.154 517.201 968.808 525.883C961.361 545.209 945.534 553.986 921.62 551.47C905.778 549.803 891.377 535.075 887.994 518.53C884.954 503.665 888.994 490.234 894.819 477.168C923.267 413.353 951.997 349.664 980.567 285.904C1000.42 241.602 1019.61 196.996 1040.21 153.044C1050.1 131.942 1068.06 124.769 1086.13 128.756C1108.36 133.667 1124 153.208 1122.1 174.352C1121.15 184.831 1116.51 195.254 1112.18 205.104C1094.98 244.219 1077.07 283.027 1059.73 322.082C1036.09 375.311 1012.76 428.675 989.201 481.939C986.679 487.641 983.529 493.065 980.448 499.492Z" fill="url(#paint17_linear_267_1261)"/>
</g>
<rect x="0.5" y="0.5" width="3999" height="844" stroke="black"/>
<defs>
<linearGradient id="paint0_linear_267_1261" x1="2.36914" y1="424.857" x2="3981.06" y2="423.683" gradientUnits="userSpaceOnUse">
<stop stop-color="#07CBFE"/>
<stop offset="0.55" stop-color="#309FFB"/>
<stop offset="1" stop-color="#4887F9"/>
</linearGradient>
<linearGradient id="paint1_linear_267_1261" x1="-13.0169" y1="504.158" x2="4002.37" y2="480.463" gradientUnits="userSpaceOnUse">
<stop stop-color="#07CBFE"/>
<stop offset="0.55" stop-color="#309FFB"/>
<stop offset="1" stop-color="#4887F9"/>
</linearGradient>
<linearGradient id="paint2_linear_267_1261" x1="-3.50004" y1="425" x2="4024.5" y2="425" gradientUnits="userSpaceOnUse">
<stop stop-color="#07CBFE"/>
<stop offset="0.55" stop-color="#309FFB"/>
<stop offset="1" stop-color="#4887F9"/>
</linearGradient>
<linearGradient id="paint3_linear_267_1261" x1="1.1851" y1="442.62" x2="4018.95" y2="442.62" gradientUnits="userSpaceOnUse">
<stop stop-color="#07CBFE"/>
<stop offset="0.55" stop-color="#309FFB"/>
<stop offset="1" stop-color="#4887F9"/>
</linearGradient>
<linearGradient id="paint4_linear_267_1261" x1="1.18715" y1="442.62" x2="3971.59" y2="442.62" gradientUnits="userSpaceOnUse">
<stop stop-color="#07CBFE"/>
<stop offset="0.55" stop-color="#309FFB"/>
<stop offset="1" stop-color="#4887F9"/>
</linearGradient>
<linearGradient id="paint5_linear_267_1261" x1="-5.91514" y1="440.252" x2="3985.79" y2="440.252" gradientUnits="userSpaceOnUse">
<stop stop-color="#07CBFE"/>
<stop offset="0.55" stop-color="#309FFB"/>
<stop offset="1" stop-color="#4887F9"/>
</linearGradient>
<linearGradient id="paint6_linear_267_1261" x1="-17.7547" y1="497.059" x2="3997.63" y2="497.059" gradientUnits="userSpaceOnUse">
<stop stop-color="#07CBFE"/>
<stop offset="0.55" stop-color="#309FFB"/>
<stop offset="1" stop-color="#4887F9"/>
</linearGradient>
<linearGradient id="paint7_linear_267_1261" x1="-24.868" y1="456.82" x2="4023.68" y2="494.733" gradientUnits="userSpaceOnUse">
<stop stop-color="#07CBFE"/>
<stop offset="0.55" stop-color="#309FFB"/>
<stop offset="1" stop-color="#4887F9"/>
</linearGradient>
<linearGradient id="paint8_linear_267_1261" x1="-36.7135" y1="494.692" x2="4009.47" y2="494.692" gradientUnits="userSpaceOnUse">
<stop stop-color="#07CBFE"/>
<stop offset="0.55" stop-color="#309FFB"/>
<stop offset="1" stop-color="#4887F9"/>
</linearGradient>
<linearGradient id="paint9_linear_267_1261" x1="20.1346" y1="497.059" x2="4000" y2="441.374" gradientUnits="userSpaceOnUse">
<stop stop-color="#07CBFE"/>
<stop offset="0.55" stop-color="#309FFB"/>
<stop offset="1" stop-color="#4887F9"/>
</linearGradient>
<linearGradient id="paint10_linear_267_1261" x1="16.5858" y1="442.619" x2="4020.14" y2="442.619" gradientUnits="userSpaceOnUse">
<stop stop-color="#07CBFE"/>
<stop offset="0.55" stop-color="#309FFB"/>
<stop offset="1" stop-color="#4887F9"/>
</linearGradient>
<linearGradient id="paint11_linear_267_1261" x1="-5.9225" y1="442.618" x2="3985.79" y2="442.618" gradientUnits="userSpaceOnUse">
<stop stop-color="#07CBFE"/>
<stop offset="0.55" stop-color="#309FFB"/>
<stop offset="1" stop-color="#4887F9"/>
</linearGradient>
<linearGradient id="paint12_linear_267_1261" x1="1.17661" y1="492.326" x2="3991.71" y2="492.326" gradientUnits="userSpaceOnUse">
<stop stop-color="#07CBFE"/>
<stop offset="0.55" stop-color="#309FFB"/>
<stop offset="1" stop-color="#4887F9"/>
</linearGradient>
<linearGradient id="paint13_linear_267_1261" x1="-5.91758" y1="442.619" x2="4013.03" y2="494.75" gradientUnits="userSpaceOnUse">
<stop stop-color="#07CBFE"/>
<stop offset="0.55" stop-color="#309FFB"/>
<stop offset="1" stop-color="#4887F9"/>
</linearGradient>
<linearGradient id="paint14_linear_267_1261" x1="-15.4015" y1="355.042" x2="3609.57" y2="278.603" gradientUnits="userSpaceOnUse">
<stop stop-color="#07CBFE"/>
<stop offset="0.55" stop-color="#309FFB"/>
<stop offset="1" stop-color="#4887F9"/>
</linearGradient>
<linearGradient id="paint15_linear_267_1261" x1="10.6588" y1="426.05" x2="3990.53" y2="426.05" gradientUnits="userSpaceOnUse">
<stop stop-color="#07CBFE"/>
<stop offset="0.55" stop-color="#309FFB"/>
<stop offset="1" stop-color="#4887F9"/>
</linearGradient>
<linearGradient id="paint16_linear_267_1261" x1="1.18065" y1="423.683" x2="4018.94" y2="423.683" gradientUnits="userSpaceOnUse">
<stop stop-color="#07CBFE"/>
<stop offset="0.55" stop-color="#309FFB"/>
<stop offset="1" stop-color="#4887F9"/>
</linearGradient>
<linearGradient id="paint17_linear_267_1261" x1="-8.28593" y1="340.839" x2="3971.58" y2="340.839" gradientUnits="userSpaceOnUse">
<stop stop-color="#07CBFE"/>
<stop offset="0.55" stop-color="#309FFB"/>
<stop offset="1" stop-color="#4887F9"/>
</linearGradient>
<clipPath id="clip0_267_1261">
<rect width="4000" height="845" fill="white"/>
</clipPath>
</defs>
</svg>
