<svg width="1833" height="809" viewBox="0 0 1833 809" fill="none" xmlns="http://www.w3.org/2000/svg">
<defs>
  <linearGradient id="globalGradient" x1="0" y1="0" x2="3000" y2="0" gradientUnits="userSpaceOnUse">
    <stop offset="0%" stop-color="#3fa3f7"/>
    <stop offset="70%" stop-color="#4f7df9"/>
    <stop offset="100%" stop-color="#a78bfa"/>
  </linearGradient>
</defs>
<path d="M1600.35 2.73358C1491.44 2.73358 1416.19 45.9105 1365.24 106.23C1356.64 88.1788 1350.11 80.2697 1340.91 69.8469C1299.2 22.7177 1232.16 0.711668 1142.2 0.711668C1054.3 0.711668 981.034 28.1589 930.157 71.3939C903.722 28.4415 840.758 0 764.814 0C665.587 0 557.455 14.0345 493.316 117.395C491.775 80.1811 488.411 60.4825 467.491 38.3435C442.067 11.4322 400.928 4.3997 360.845 4.3997C287.815 4.3997 232.894 36.3063 193.346 101.262C135.972 192.907 -3.08484 494.379 0.052211 640.423C2.08911 734.744 65.3657 802.718 178.613 805.395C267.105 807.503 336.507 783.852 380.664 739.279C420.286 782.335 480.738 807.581 553.054 807.581C633.592 807.581 714.65 783.391 762.509 730.536C802.83 780.075 866.286 808.903 947.879 808.502C1054.55 808.043 1148.25 757.387 1209.45 679.867C1243.03 771.273 1328.16 807.581 1421.18 807.581C1625 807.581 1714.51 667.407 1789.12 445.805C1805.92 395.895 1828.36 312.547 1832.07 242.536C1838.23 126.003 1788.93 2.73358 1600.35 2.73358ZM244.164 559.899C349.62 541.583 376.129 579.717 372.814 615.014C362.867 720.709 265.901 744.348 181.705 742.37C120.644 740.996 65.7374 712.947 64.2061 642.043C61.5299 518.033 188.024 231.087 247.569 135.994C275.059 90.8421 308.571 68.5107 362.02 68.5107C412.659 68.5107 425.207 94.5133 424.464 125.661C422.471 208.742 288.217 461.252 244.164 559.899ZM587.577 462.486C580.604 481.354 567.386 520.902 556.711 562.844C591.323 554.2 617.282 548.168 661.751 549.237C712.42 550.459 744.802 571.48 744.802 613.375C744.802 714.967 632.536 744.777 554.66 744.777C469.156 744.777 394.045 696.099 394.045 602.597C394.045 492.962 453.471 326.741 509.239 216.008C577.734 80.0284 647.702 61.9501 768.219 61.9501C821.192 61.9501 882.209 84.6083 882.209 134.609C882.209 203.921 823.482 230.371 765.26 233.7C740.401 235.075 702.132 236.495 679.236 234.769C679.236 234.769 659.863 264.297 639.257 316.899C747.077 301.719 792.795 326.184 774.597 388.562C749.976 472.816 676.976 478.483 587.577 462.486ZM1117.88 200.341C1088.72 200.341 1069.64 218.806 1055.45 238.744C1024.21 282.633 956.487 458.488 945.946 530.745C938.72 580.239 960.086 590.305 983.457 590.305C1020.91 590.305 1062.91 550.668 1077.24 485.263C1077.24 485.263 1005.92 483.538 1025.59 420.293C1044.7 358.92 1080.93 345.628 1141.01 343.16C1259.37 338.319 1247.69 425.72 1238.21 472.33C1207.45 623.667 1099.74 745.24 947.374 745.24C843.062 745.24 778.314 687.54 778.314 581.147C778.314 505.381 815.914 386.379 845.724 316.754C909.164 168.554 975.697 64.8364 1145.2 64.8364C1246.88 64.8364 1327.11 101.381 1315.35 196.653C1306.72 266.577 1271.73 307.641 1208.15 312.606C1190.37 313.981 1117.62 312.148 1141.75 243.324C1150.17 219.253 1153.65 200.341 1117.88 200.341ZM1758.03 325.423C1740.12 414.657 1699.81 520.204 1656.05 598.883C1584.68 727.235 1497.97 745.209 1422.29 744.303C1346.58 743.387 1261.27 715.445 1260.62 598.675C1260.16 514.837 1296.33 396.489 1327.02 318.939C1380.53 178.321 1435.21 63.662 1608.08 65.7145C1809.67 68.1121 1773.72 247.382 1758.03 325.423ZM1587.02 203.27C1569.72 203.118 1554.63 206.416 1541.05 227.355C1510.56 266.873 1421.41 510.48 1422.97 559.067C1423.54 576.507 1433.19 591.791 1454.69 591.791C1479.35 591.806 1493.06 574.768 1505.19 554.189C1533.23 506.703 1612.14 291.376 1614.29 237.541C1614.93 221.862 1612.31 203.583 1587.02 203.27Z" fill="url(#globalGradient)"/>

</svg>
