<svg width="3000" height="758" viewBox="0 0 3000 758" fill="none" xmlns="http://www.w3.org/2000/svg">
<g clip-path="url(#clip0_258_1293)">
<path d="M823.822 161.936C820.375 161.936 818.077 161.936 814.63 161.936C773.266 161.936 736.499 175.717 712.37 192.945L711.221 191.796V171.123H615.855V584.578H697.433H711.221V275.636C733.052 259.557 761.777 246.923 795.097 246.923C801.991 246.923 810.034 246.923 816.928 249.22C864.036 260.705 881.271 299.754 881.271 339.951V583.429H976.637V322.723C976.637 269.893 961.7 227.399 928.379 199.836C898.506 176.866 862.887 163.084 823.822 161.936Z" fill="url(#paint0_linear_258_1293)"/>
<path d="M449.254 169.977V583.431H544.62V169.977H449.254Z" fill="url(#paint1_linear_258_1293)"/>
<path d="M1225.97 160.787C1117.96 160.787 1023.75 246.923 1023.75 377.851C1023.75 392.781 1024.9 406.563 1027.19 420.345C1028.34 424.939 1029.49 430.681 1030.64 435.275C1030.64 436.424 1031.79 438.72 1031.79 439.869C1031.79 441.017 1032.94 443.314 1032.94 444.463C1034.09 449.057 1035.24 452.502 1036.38 455.948C1065.11 540.936 1140.94 592.617 1225.97 592.617C1228.27 592.617 1231.71 592.617 1234.01 592.617C1299.5 590.32 1359.25 555.866 1389.12 492.699C1393.72 483.511 1397.17 474.323 1399.46 465.136H1390.27H1384.53H1314.44C1292.61 501.887 1250.1 515.669 1209.88 508.778C1163.92 500.739 1135.2 465.136 1127.15 420.345C1126.01 414.602 1124.86 410.008 1124.86 404.266H1417.85C1419 393.93 1420.15 376.702 1420.15 362.92C1419 230.845 1324.78 160.787 1225.97 160.787ZM1123.71 334.208C1136.35 272.19 1181.16 243.478 1225.97 243.478C1270.78 243.478 1321.33 272.19 1328.23 334.208H1123.71Z" fill="url(#paint2_linear_258_1293)"/>
<path d="M181.54 169.977C143.623 169.977 111.452 169.977 82.7269 169.977H0V758.001H97.6637V562.758L98.8127 561.61C124.09 578.837 160.858 592.619 203.37 592.619C306.779 592.619 392.953 509.928 392.953 383.595C394.102 253.816 304.481 169.977 181.54 169.977ZM182.689 505.334C149.368 505.334 119.494 492.701 97.6637 475.474V254.964H179.242C252.777 254.964 296.438 305.498 296.438 377.852C295.289 450.207 252.777 505.334 182.689 505.334Z" fill="url(#paint3_linear_258_1293)"/>
<path d="M2441.59 160.788C2400.23 160.788 2363.46 174.57 2339.34 190.648L2338.19 189.5V0H2242.82V583.43H2324.4C2353.12 583.43 2384.15 583.43 2420.91 583.43C2540.41 583.43 2627.73 492.7 2627.73 365.218C2627.73 242.33 2542.71 160.788 2441.59 160.788ZM2417.47 500.739H2338.19V275.636C2360.02 259.558 2388.74 246.924 2422.06 246.924C2491 246.924 2532.36 300.903 2532.36 370.961C2531.22 442.167 2488.7 500.739 2417.47 500.739Z" fill="url(#paint4_linear_258_1293)"/>
<path d="M2873.61 335.357C2816.16 322.724 2766.76 323.872 2766.76 284.824C2766.76 256.111 2793.18 243.478 2834.55 243.478C2873.61 243.478 2931.06 257.26 2978.17 285.972V192.945C2936.81 169.975 2881.66 159.639 2834.55 159.639C2741.48 159.639 2671.39 205.578 2670.24 291.714C2670.24 366.366 2720.8 393.93 2794.33 411.157C2852.93 424.939 2903.49 422.642 2903.49 463.987C2903.49 494.996 2875.91 508.778 2832.25 508.778C2789.74 508.778 2731.14 494.996 2681.73 462.839V558.163C2725.39 581.133 2782.84 592.617 2831.1 592.617C2921.87 592.617 3000 550.124 3000 455.948C3000 377.851 2947.15 352.584 2873.61 335.357Z" fill="url(#paint5_linear_258_1293)"/>
<path d="M2077.37 190.649L2076.22 191.797C2016.47 151.6 1952.13 163.085 1952.13 163.085C1839.53 179.164 1783.23 281.379 1777.48 356.031C1772.88 419.197 1788.97 519.115 1893.53 574.243C1964.77 612.143 2039.45 585.727 2076.22 562.758C2077.37 562.758 2077.37 563.906 2077.37 563.906V584.579H2172.73V169.976H2077.37V190.649ZM2077.37 478.918C2042.9 501.888 2011.87 509.927 1984.3 506.482C1898.12 497.294 1886.63 420.346 1884.34 401.97C1879.74 362.921 1883.19 291.715 1939.49 260.706C2009.58 221.658 2077.37 275.637 2077.37 275.637V478.918Z" fill="url(#paint6_linear_258_1293)"/>
<path d="M1695.9 484.661V0H1600.54V488.106V489.255C1600.54 576.539 1661.43 583.43 1680.96 583.43H1760.24V500.739H1697.05" fill="url(#paint7_linear_258_1293)"/>
<path d="M449.254 72.3544L517.044 4.59375H613.559V99.918L545.769 168.827V72.3544H449.254Z" fill="url(#paint8_linear_258_1293)"/>
</g>
<defs>
<linearGradient id="paint0_linear_258_1293" x1="4.5" y1="374.506" x2="2983.5" y2="374.506" gradientUnits="userSpaceOnUse">
<stop stop-color="#4192F9"/>
<stop offset="0.5" stop-color="#6381F7"/>
<stop offset="1" stop-color="#8787F8"/>
</linearGradient>
<linearGradient id="paint1_linear_258_1293" x1="0.00390608" y1="377.503" x2="2983.5" y2="377.503" gradientUnits="userSpaceOnUse">
<stop stop-color="#4192F9"/>
<stop offset="0.5" stop-color="#6381F7"/>
<stop offset="1" stop-color="#8787F8"/>
</linearGradient>
<linearGradient id="paint2_linear_258_1293" x1="26.996" y1="377.5" x2="3036" y2="377.5" gradientUnits="userSpaceOnUse">
<stop stop-color="#4192F9"/>
<stop offset="0.5" stop-color="#6381F7"/>
<stop offset="1" stop-color="#8787F8"/>
</linearGradient>
<linearGradient id="paint3_linear_258_1293" x1="4.81154e-07" y1="463.989" x2="3007.5" y2="420.832" gradientUnits="userSpaceOnUse">
<stop stop-color="#4192F9"/>
<stop offset="0.5" stop-color="#6381F7"/>
<stop offset="1" stop-color="#8787F8"/>
</linearGradient>
<linearGradient id="paint4_linear_258_1293" x1="-5.99595" y1="290.617" x2="2998.5" y2="290.617" gradientUnits="userSpaceOnUse">
<stop stop-color="#4192F9"/>
<stop offset="0.5" stop-color="#6381F7"/>
<stop offset="1" stop-color="#8787F8"/>
</linearGradient>
<linearGradient id="paint5_linear_258_1293" x1="-16.5038" y1="377.502" x2="3000" y2="376.124" gradientUnits="userSpaceOnUse">
<stop stop-color="#4192F9"/>
<stop offset="0.5" stop-color="#6381F7"/>
<stop offset="1" stop-color="#8787F8"/>
</linearGradient>
<linearGradient id="paint6_linear_258_1293" x1="-25.4959" y1="377.501" x2="3028.5" y2="377.501" gradientUnits="userSpaceOnUse">
<stop stop-color="#4192F9"/>
<stop offset="0.5" stop-color="#6381F7"/>
<stop offset="1" stop-color="#8787F8"/>
</linearGradient>
<linearGradient id="paint7_linear_258_1293" x1="27" y1="290.617" x2="2968.5" y2="251.565" gradientUnits="userSpaceOnUse">
<stop stop-color="#4192F9"/>
<stop offset="0.5" stop-color="#6381F7"/>
<stop offset="1" stop-color="#8787F8"/>
</linearGradient>
<linearGradient id="paint8_linear_258_1293" x1="4.50386" y1="86.8856" x2="2983.5" y2="5.77884" gradientUnits="userSpaceOnUse">
<stop stop-color="#4192F9"/>
<stop offset="0.5" stop-color="#6381F7"/>
<stop offset="1" stop-color="#8787F8"/>
</linearGradient>
<clipPath id="clip0_258_1293">
<rect width="3000" height="758" fill="white"/>
</clipPath>
</defs>
</svg>
