<svg width="3000" height="850" viewBox="0 0 3509 894" fill="none" xmlns="http://www.w3.org/2000/svg">
  <defs>
    <linearGradient id="globalGradient" x1="0" y1="0" x2="3509" y2="0" gradientUnits="userSpaceOnUse">
      <stop offset="0%" stop-color="#00bcd4"/>
      <stop offset="5%" stop-color="#3fa3f7"/>
      <stop offset="70%" stop-color="#4f7df9"/>
      <stop offset="100%" stop-color="#a78bfa"/>
    </linearGradient>
  </defs>

  <path d="M388.993 383.138C387.992 375.895 386.475 369.13 386.105 362.302C385.136 344.451 383.889 326.558 384.22 308.71C384.55 290.959 386.595 273.235 388.015 255.51C389.598 235.762 393.715 216.467 399.049 197.437C404.119 179.349 410.466 161.649 420.076 145.479C427.137 133.598 434.977 122.067 443.52 111.205C461.216 88.7041 484.24 72.7676 509.91 60.6409C530.44 50.943 551.927 43.8405 574.345 40.0836C589.338 37.571 604.435 35.2752 619.58 34.173C638.893 32.7675 658.335 31.6514 677.659 32.2934C695.794 32.896 713.871 35.7676 731.933 37.9716C755.859 40.891 778.71 48.039 800.888 57.1458C820.887 65.3575 839.628 75.8933 856.396 89.8064C879.386 108.884 895.76 132.586 907.512 159.886C919.353 187.392 927.444 215.974 932.82 245.32C935.001 257.223 935.845 269.388 936.948 281.465C937.891 291.806 939.04 302.207 938.826 312.555C938.546 326.035 937.226 339.508 935.962 352.948C933.97 374.131 929.121 394.7 922.101 414.791C912.496 442.281 898.897 467.568 880.989 490.537C879.796 492.066 878.748 493.707 877.322 495.738C908.492 495.738 939.357 495.738 970.611 495.738C970.611 529.23 970.611 562.283 970.611 595.999C968.948 595.999 967.185 595.999 965.422 595.999C864.091 595.999 762.76 596.083 661.429 595.91C646.06 595.883 630.606 595.472 615.344 593.82C585.168 590.555 555.275 585.414 526.588 574.977C505.855 567.433 486.983 556.592 469.963 542.494C446.539 523.092 428.808 499.255 415.643 472.053C403.75 447.48 395.245 421.718 390.975 394.658C390.391 390.956 389.661 387.276 388.993 383.138ZM780.486 442.037C783.666 435.102 787.282 428.33 789.952 421.204C802.194 388.523 804.43 354.19 805.894 319.805C806.273 310.905 805.638 301.925 804.93 293.024C803.839 279.286 803.249 265.402 800.708 251.908C796.515 229.64 789.609 208.193 778.191 188.277C769.118 172.45 757.617 159.198 742.595 148.886C720.228 133.533 694.774 128.507 668.424 127.118C649.967 126.145 631.614 128.123 613.757 133.063C586.926 140.485 564.52 154.486 548.526 177.873C536.761 195.077 529.568 214.042 524.781 234.236C519.522 256.422 517.209 278.886 517.138 301.556C517.089 317.247 518.115 332.956 519.079 348.632C519.662 358.114 520.501 367.644 522.181 376.98C525.58 395.882 530.409 414.46 538.101 432.134C546.046 450.39 557.572 466.104 573.731 477.853C595.668 493.803 621.063 500.13 647.622 501.82C659.149 502.553 670.804 501.422 682.395 500.983C696.713 500.44 710.462 497.05 723.772 491.941C748.551 482.432 767.697 466.393 780.486 442.037Z" fill="url(#globalGradient)"/>
  <path d="M2491.03 575.031C2475.33 584.473 2458.45 589.414 2440.86 591.923C2415.45 595.545 2389.86 596.097 2364.21 596.056C2273.39 595.912 2182.57 596.001 2091.74 595.998C2084.01 595.998 2084 595.987 2084 588.321C2084 561.824 2084 535.327 2084 508.83C2084 501.009 2084.01 501.001 2092.09 501.001C2177.42 500.999 2262.74 501.167 2348.06 500.855C2364.5 500.894 2381.14 499.576 2396.67 493.497C2417.48 485.351 2430.38 470.539 2433.1 447.64C2437.76 408.376 2413.31 382.071 2379.14 376.214C2368.53 374.396 2357.69 373.251 2346.94 373.142C2310.45 372.77 2273.95 373.013 2237.45 372.996C2208.87 372.982 2180.62 370.207 2153.2 361.766C2126.97 353.691 2105.38 338.875 2089.21 316.405C2072.6 293.322 2062.78 267.759 2059.89 239.447C2056.35 204.776 2061.81 171.746 2077.73 140.665C2088.58 119.478 2102.64 100.968 2123.26 88.1473C2141.99 76.5043 2162.55 69.8055 2184.18 67.2437C2201.97 65.1383 2219.98 64.2408 2237.9 64.1266C2332.86 63.5215 2427.82 63.3303 2522.78 63.0047C2530.99 62.9766 2531 63.0074 2531 71.2056C2531 97.3695 2531 123.533 2531 149.697C2531 157.991 2530.99 157.999 2522.88 157.999C2447.72 158.001 2372.56 157.637 2297.4 158.209C2273.2 158.393 2248.85 159.818 2224.85 162.91C2202.4 165.805 2190.02 179.856 2186.26 202.187C2183.8 216.88 2184.27 231.395 2190.64 245.223C2196.55 258.08 2206.51 266.993 2219.92 270.551C2232.2 273.812 2245.02 276.43 2257.66 276.732C2301.11 277.77 2344.6 277.199 2388.05 278.18C2413.29 278.75 2438.62 280.431 2462.94 288.255C2492.92 297.898 2518.74 313.605 2535.64 341.138C2547.46 360.392 2554.62 381.557 2557.81 403.833C2559.74 417.28 2561.11 430.993 2560.78 444.539C2559.87 482.172 2548.69 516.551 2525.01 546.293C2515.71 557.985 2504.31 567.389 2491.03 575.031Z" fill="url(#globalGradient)"/>
  <path d="M2807.67 63.9041C2811.12 63.5768 2814.09 63.0382 2817.06 63.0368C2907.89 62.9922 2998.71 62.9991 3089.53 63.0027C3096.98 63.003 3097 63.0185 3097 70.4554C3097 96.9524 3097 123.449 3097 149.946C3097 157.989 3096.99 157.998 3089.13 157.998C3014.31 158.001 2939.48 157.687 2864.66 158.184C2841.1 158.34 2817.45 159.717 2794.03 162.247C2766.92 165.175 2753.36 183.469 2752.15 210.342C2751.77 218.733 2752.19 227.412 2753.94 235.598C2758.46 256.747 2773.28 268.036 2793.38 272.697C2803.36 275.012 2813.71 276.631 2823.93 276.827C2864.06 277.593 2904.2 277.645 2944.33 278.009C2968.81 278.231 2993.22 279.579 3017.16 285.032C3040.17 290.273 3061.22 299.733 3079.59 314.968C3100.21 332.061 3111.2 354.753 3118.96 379.606C3126.66 404.298 3128.53 429.694 3126.78 455.185C3124.48 488.87 3113.03 519.463 3091.59 545.919C3069.35 573.36 3040.09 588.199 3005.39 591.889C2983.78 594.188 2961.98 595.724 2940.26 595.821C2846.44 596.239 2752.61 596.001 2658.79 595.998C2651.01 595.998 2651 595.988 2651 588.368C2651 561.538 2650.99 534.707 2651 507.877C2651.01 501.03 2651.03 501.005 2658.05 501.004C2743.37 500.998 2828.69 501.202 2914.02 500.838C2932.11 500.761 2950.47 499.425 2967.32 491.906C2986.65 483.281 2999.05 465.981 3000.02 444.298C3000.72 428.922 2998.32 414.387 2989.02 401.647C2978.19 386.808 2963.06 378.749 2945.33 376.226C2931.39 374.242 2917.21 373.298 2903.13 373.139C2866.64 372.725 2830.13 373.53 2793.65 372.821C2767.68 372.315 2741.95 369.021 2717.02 360.907C2685.5 350.647 2662.61 330.253 2646.39 301.806C2634.06 280.189 2627.49 257.01 2625.8 232.101C2623.73 201.466 2629.37 172.479 2642.2 144.854C2649.23 129.706 2658.07 115.452 2670.04 103.696C2686.05 87.9917 2705.28 77.2141 2727.08 72.2279C2742.56 68.6877 2758.49 66.8538 2774.31 65.1388C2785.19 63.9593 2796.23 64.2884 2807.67 63.9041Z" fill="url(#globalGradient)"/>
  <path d="M1839 379C1793 379 1747.5 378.997 1702 379.003C1695.61 379.004 1695.38 379.044 1696.02 385.448C1698.2 407.312 1702.98 428.497 1713.54 448.012C1726.21 471.43 1746.45 484.922 1771.59 491.921C1794.5 498.302 1817.87 501.017 1841.62 501.006C1889.95 500.985 1938.28 500.997 1986.61 501.002C1993.98 501.003 1994 501.02 1994 508.54C1994 535.539 1993.89 562.54 1994.1 589.538C1994.14 594.584 1992.58 596.107 1987.54 596.094C1928.7 595.945 1869.85 596.863 1811.04 595.674C1775.86 594.962 1740.57 592.015 1706.69 580.885C1684.49 573.59 1664.32 562.546 1646.59 547.143C1617.27 521.662 1598.39 489.377 1585.28 453.344C1575.78 427.24 1569.79 400.274 1568.09 372.584C1566.67 349.354 1565.22 325.97 1566.32 302.776C1568.52 256.919 1578.71 212.82 1601.39 172.306C1610.19 156.582 1620.76 142.146 1632.68 128.551C1649.59 109.256 1669.16 93.5296 1692.03 82.0773C1710.7 72.7288 1730.84 68.2206 1751.5 66.0248C1798.82 60.9936 1846.32 63.4975 1893.74 63.0546C1924.9 62.7636 1956.07 62.9934 1987.24 63.0054C1993.9 63.008 1993.99 63.0944 1993.99 69.6635C1994.01 96.8298 1994.01 123.996 1993.99 151.163C1993.99 157.971 1993.96 157.994 1986.91 157.995C1940.58 158.003 1894.24 157.454 1847.92 158.218C1822.71 158.633 1797.35 158.599 1772.44 163.957C1754.9 167.731 1739.2 175.13 1726.71 188.014C1712.87 202.295 1703.43 219.234 1700.51 239.195C1698.49 252.993 1696.99 266.871 1695.49 280.739C1695.39 281.695 1697.04 283.417 1698.2 283.797C1699.86 284.341 1701.82 283.997 1703.66 283.997C1797.32 284 1890.99 283.998 1984.65 284.002C1994.83 284.002 1993.99 283.329 1993.99 293.579C1994.01 319.912 1993.88 346.246 1994.1 372.578C1994.14 377.674 1992.49 379.108 1987.5 379.093C1938.16 378.938 1888.83 378.999 1839 379Z" fill="url(#globalGradient)"/>
  <path d="M1492.9 62.9996C1500.99 63.0555 1501 63.0555 1501 70.8025C1501 178.45 1501.35 286.099 1500.78 393.743C1500.62 425.064 1496.25 456.102 1485.21 485.791C1474.67 514.115 1456.94 536.673 1431.93 553.791C1400.58 575.249 1365.6 586.363 1328.45 592.152C1300.5 596.508 1272.36 596.994 1244.3 595.757C1205.42 594.043 1167.09 588.277 1131.35 571.522C1109.71 561.376 1091.05 547.292 1075.24 529.122C1052.89 503.445 1042.11 473.3 1038.97 440.033C1037.51 424.5 1036.16 408.882 1036.13 393.299C1035.88 285.985 1036 178.671 1036 71.3568C1036 63.0045 1036.01 63.0007 1044.56 63.0003C1077.39 62.9987 1110.22 62.9945 1143.05 63.0044C1149.97 63.0064 1150 63.0319 1150 69.9688C1150 176.283 1149.85 282.598 1150.15 388.911C1150.2 406.49 1151.76 424.113 1157.16 441.12C1164.28 463.514 1179.32 479.059 1199.42 490.153C1218.76 500.827 1239.66 505.218 1261.66 506.164C1282.48 507.06 1302.85 505.309 1322.66 498.985C1340.99 493.136 1357.85 484.668 1369.73 468.701C1378.56 456.833 1381.94 442.957 1383.95 428.665C1387.56 403.031 1387.01 377.221 1387.01 351.436C1386.99 257.953 1387 164.47 1387 70.9864C1387 63.0103 1387.01 63.002 1394.94 63.0011C1427.43 62.9976 1459.92 62.9996 1492.9 62.9996Z" fill="url(#globalGradient)"/>

  <path d="M821.638 817.328C815.614 794.62 809.725 772.298 803.836 749.976C803.406 749.938 802.977 749.901 802.547 749.863C802.021 751.298 801.379 752.701 800.984 754.171C794.343 778.927 787.637 803.668 781.207 828.48C780.129 832.636 778.346 834.316 774.027 834.075C768.379 833.76 762.697 833.869 757.037 834.043C753.855 834.14 752.174 833.037 751.414 829.838C744.332 800.043 737.147 770.273 730.004 740.493C728.296 733.373 726.776 726.204 724.899 719.129C723.777 714.901 725.395 713.795 729.318 713.956C734.142 714.155 739.002 714.289 743.806 713.919C748.5 713.558 750.105 715.645 751.014 719.961C755.539 741.452 760.347 762.884 765.077 784.331C765.494 786.226 766.068 788.086 767.623 790.175C768.152 788.783 768.809 787.425 769.192 785.993C775.123 763.803 781.098 741.623 786.847 719.385C787.843 715.532 789.439 713.736 793.618 713.927C799.937 714.216 806.289 714.226 812.607 713.925C816.939 713.719 818.749 715.457 819.757 719.576C825.064 741.243 830.614 762.849 836.112 784.468C836.617 786.454 837.351 788.382 839.156 790.324C839.655 789.026 840.329 787.766 840.627 786.423C845.488 764.494 850.427 742.58 855.031 720.596C856.075 715.61 858.133 713.526 863.362 713.902C869.267 714.328 875.227 714.001 881.82 714.001C881.382 716.579 881.212 718.187 880.83 719.743C871.98 755.793 863.034 791.821 854.333 827.907C853.241 832.436 851.425 834.464 846.609 834.082C841.807 833.702 836.928 833.701 832.126 834.082C827.285 834.466 825.138 832.449 824.389 827.861C823.829 824.427 822.666 821.092 821.638 817.328Z" fill="url(#globalGradient)"/>
  <path d="M2716 714C2727.47 714.345 2738.5 714.033 2749.37 715.237C2758.46 716.243 2767.39 718.863 2773.14 727.225C2786.42 746.525 2776.22 774.194 2753.62 780.081C2752.22 780.445 2750.86 780.919 2748.9 781.518C2766.7 795.249 2775.59 814.887 2787.86 833.33C2785.63 833.632 2784.29 833.963 2782.93 833.974C2776.27 834.029 2769.6 833.83 2762.95 834.065C2759.2 834.198 2756.84 832.928 2754.75 829.745C2746.71 817.5 2738.46 805.397 2730.17 793.323C2724.57 785.178 2715.88 784.315 2707.09 784.148C2703.62 784.082 2704.03 787.044 2704.24 789.318C2703.98 801.98 2704.01 814.641 2703.99 827.302C2703.98 833.897 2703.9 833.97 2697.28 833.996C2692.95 834.014 2688.61 833.843 2684.29 834.04C2680.47 834.214 2678.94 832.82 2678.95 828.863C2679.05 792.212 2679.04 755.56 2678.96 718.909C2678.96 715.213 2680.41 713.918 2684.01 713.962C2694.51 714.09 2705 714.003 2716 714ZM2720.5 735C2716.34 735.01 2712.15 734.738 2708.04 735.184C2706.61 735.338 2704.3 737.225 2704.24 738.406C2703.9 745.877 2703.98 753.375 2704.21 760.855C2704.24 761.886 2705.91 763.761 2706.78 763.737C2718.7 763.406 2730.7 763.47 2742.5 762.034C2749.81 761.145 2752.46 755.687 2751.97 747.386C2751.58 740.803 2748.13 736.994 2740.86 736.161C2734.45 735.425 2727.96 735.361 2720.5 735Z" fill="url(#globalGradient)"/>
  <path d="M1184.62 808.415C1174.54 792.263 1164.66 776.42 1154.78 760.577C1154.28 760.742 1153.79 760.908 1153.29 761.073C1153.19 762.973 1153.02 764.874 1153.01 766.775C1152.99 787.095 1152.88 807.416 1153.09 827.735C1153.13 832.46 1151.72 834.468 1146.84 834.061C1143.04 833.744 1139.17 833.802 1135.36 834.046C1131.12 834.316 1129.84 832.44 1129.94 828.434C1130.15 820.611 1130 812.779 1130 804.95C1130 776.802 1130.1 748.652 1129.9 720.505C1129.87 715.522 1131.3 713.506 1136.42 713.925C1140.89 714.291 1145.46 713.584 1149.88 714.17C1152.31 714.493 1155.46 715.913 1156.68 717.849C1170.56 739.966 1184.14 762.282 1197.82 784.528C1198.63 785.842 1199.66 787.016 1201.73 787.9C1201.82 785.994 1201.99 784.088 1201.99 782.182C1202.01 761.529 1202.12 740.874 1201.91 720.223C1201.87 715.447 1203.38 713.573 1208.2 713.934C1212.51 714.256 1216.86 714.106 1221.19 713.977C1224.51 713.878 1226.03 715.101 1226.02 718.606C1225.96 755.582 1225.97 792.559 1226.01 829.535C1226.01 832.708 1224.73 834.17 1221.54 833.995C1220.22 833.922 1218.88 833.998 1217.55 833.999C1199.93 834.012 1199.93 834.007 1191.02 818.963C1188.99 815.529 1186.88 812.135 1184.62 808.415Z" fill="url(#globalGradient)"/>
  <path d="M986.001 729.007C986.001 714 986.037 714.616 1000.39 713.765C1008.74 713.27 1012.84 716.757 1016.75 723.36C1029.2 744.406 1042.17 765.141 1054.96 785.986C1055.69 787.177 1056.56 788.286 1058.54 789.163C1058.69 787.29 1058.98 785.416 1058.98 783.543C1059.01 762.555 1059.13 741.565 1058.91 720.579C1058.86 715.689 1060.13 713.438 1065.35 713.932C1069.14 714.291 1073.01 714.17 1076.83 713.962C1080.77 713.747 1082.08 715.417 1082.05 719.254C1081.92 734.578 1082 749.903 1082 765.228C1082 786.049 1081.89 806.872 1082.08 827.692C1082.13 832.365 1080.81 834.612 1075.89 834.033C1074.08 833.82 1072.23 834 1070.39 834C1056.1 834.001 1056.25 833.91 1048.79 821.605C1037.23 802.544 1025.45 783.616 1013.73 764.655C1013.08 763.608 1012.09 762.774 1010.37 760.843C1010.2 763.961 1010.02 765.858 1010.01 767.754C1009.99 787.743 1009.88 807.733 1010.08 827.72C1010.13 832.427 1008.75 834.452 1003.86 834.066C999.718 833.739 995.517 833.765 991.373 834.056C986.624 834.39 985.938 831.912 985.949 827.95C986.043 795.135 986.001 762.32 986.001 729.007Z" fill="url(#globalGradient)"/>
  <path d="M1343 743C1343 734.671 1343.11 726.84 1342.96 719.013C1342.9 715.412 1344.21 713.753 1347.91 713.977C1350.56 714.138 1353.31 714.401 1355.89 713.928C1365.25 712.215 1370.04 716.757 1374.56 724.61C1386.73 745.81 1399.9 766.439 1412.7 787.276C1413.18 788.052 1413.95 788.644 1415.44 790.231C1415.69 787.297 1415.98 785.425 1415.98 783.553C1416.01 763.231 1416 742.908 1416 722.586C1416 714.003 1416 714.002 1424.83 714C1427.83 714 1430.84 714.163 1433.82 713.967C1437.75 713.71 1439.08 715.397 1439.05 719.244C1438.92 734.235 1439 749.227 1439 764.219C1439 785.374 1438.89 806.53 1439.08 827.683C1439.12 832.347 1437.65 833.527 1432.93 834.215C1419.07 836.235 1410.46 831.61 1403.72 818.752C1394.1 800.378 1382.18 783.203 1371.22 765.531C1370.4 764.206 1369.37 763.006 1367.31 762.06C1367.21 763.956 1367.02 765.852 1367.01 767.748C1366.99 787.737 1366.88 807.727 1367.08 827.714C1367.13 832.416 1365.76 834.463 1360.86 834.063C1356.89 833.74 1352.85 833.753 1348.88 834.061C1344.17 834.425 1342.9 832.408 1342.93 827.953C1343.07 799.803 1343 771.651 1343 743Z" fill="url(#globalGradient)"/>
  <path d="M1595 806.967C1596.76 816.141 1592.55 821.324 1585.37 825.538C1576.12 830.955 1566.27 834.36 1555.78 835.449C1541.27 836.953 1526.81 836.756 1513.26 830.112C1494.41 820.867 1485.71 804.548 1483.27 784.752C1482.17 775.843 1482.7 766.495 1484.01 757.572C1487.63 733.095 1503.02 719.006 1526.39 713.546C1540.53 710.241 1554.84 710.981 1568.67 716.07C1582.02 720.982 1589.4 731.164 1593.07 744.367C1593.37 745.458 1591.71 748.127 1590.55 748.419C1584.76 749.876 1578.85 751.086 1572.92 751.693C1571.21 751.867 1568.43 750.197 1567.57 748.601C1561.26 736.958 1551.65 732.875 1538.82 733.512C1520.97 734.397 1509.52 748.19 1508.78 766.911C1508.42 776.02 1508.67 784.915 1511.86 793.355C1518.17 810.038 1532.34 817.391 1550.22 813.629C1553.92 812.849 1557.6 811.528 1561.03 809.911C1570.4 805.496 1570.75 804.517 1570.03 794.158C1569.83 791.203 1568.65 789.975 1565.74 790.001C1559.41 790.058 1553.08 789.908 1546.75 790.026C1543.37 790.089 1541.85 788.782 1541.98 785.327C1542.12 781.501 1542.15 777.659 1541.97 773.835C1541.79 770.063 1543.56 768.936 1547.09 768.963C1561.41 769.069 1575.74 769.077 1590.07 768.96C1593.74 768.93 1595.08 770.366 1595.04 773.989C1594.91 784.816 1595 795.645 1595 806.967Z" fill="url(#globalGradient)"/>
  <path d="M2016.1 831.023C1994.94 820.703 1985.43 803.224 1984.12 780.875C1983.65 773.007 1983.75 764.91 1985.07 757.168C1989.1 733.472 2005.05 717.606 2028.79 713.163C2040.33 711.002 2051.95 711.184 2063.43 714.083C2079.13 718.044 2089.33 727.629 2094 743.228C2095.07 746.793 2094 748.206 2090.74 748.808C2085.34 749.803 2079.96 750.85 2074.55 751.804C2071.82 752.285 2070.02 751.506 2068.63 748.669C2062.84 736.891 2052.92 732.872 2039.41 733.619C2020.15 734.685 2010.25 750.121 2009.93 767.376C2009.74 777.777 2009.99 787.91 2014.72 797.567C2020.75 809.886 2031.27 814.566 2043.99 814.683C2052.57 814.763 2060.62 811.639 2067.81 806.754C2070.71 804.785 2072.58 793.658 2070.23 791.259C2069.35 790.365 2067.53 790.093 2066.13 790.063C2060.14 789.933 2054.14 789.844 2048.15 790.048C2044.19 790.183 2042.76 788.55 2042.96 784.726C2043.16 780.905 2043.08 777.065 2043 773.236C2042.95 770.311 2044.22 768.996 2047.19 769.005C2062.01 769.048 2076.83 769.06 2091.66 768.992C2094.93 768.977 2096.03 770.496 2096.01 773.58C2095.95 787.238 2095.95 800.899 2095.86 814.552C2095.82 816.543 2094.5 819.029 2092.98 820.392C2082.13 830.095 2068.88 834.546 2054.74 835.751C2041.79 836.855 2028.75 836.548 2016.1 831.023Z" fill="url(#globalGradient)"/>
  <path d="M1862.44 831.712C1840.04 821.24 1830.52 803.228 1829.98 779.595C1829.67 766.019 1830.29 752.709 1836.82 740.263C1846.19 722.41 1861.24 713.422 1880.87 712.182C1889.09 711.663 1897.56 712.178 1905.68 713.586C1923.54 716.686 1934.86 728.209 1941.15 744.599C1949.32 765.868 1949.43 787.378 1939.32 808.003C1930.7 825.588 1915.34 834.298 1896.17 835.861C1884.9 836.78 1873.54 836.337 1862.44 831.712ZM1919.98 763.663C1918.22 748.22 1910.26 734.845 1891.71 733.712C1876.1 732.759 1866.1 736.815 1860.88 748.818C1853.09 766.746 1852.79 785.033 1863.61 802.275C1869.64 811.884 1879.36 815.006 1889.88 814.581C1901.92 814.094 1910.94 807.966 1915.92 796.676C1920.46 786.394 1921.88 775.673 1919.98 763.663Z" fill="url(#globalGradient)"/>
  <path d="M2630 767.132C2630 782.001 2630 782 2615.47 782.001C2602.13 782.002 2588.8 782.113 2575.47 781.94C2571.36 781.887 2569.79 783.325 2569.94 787.458C2570.18 793.782 2570.27 800.135 2569.92 806.449C2569.64 811.402 2571.22 813.182 2576.38 813.105C2594.37 812.834 2612.37 812.989 2630.37 813.008C2636.91 813.014 2636.97 813.103 2637 819.796C2637.01 822.962 2636.88 826.134 2637.02 829.294C2637.17 832.719 2635.69 834.102 2632.28 834.027C2626.45 833.897 2620.62 834 2614.78 834C2593.29 834.001 2571.79 833.892 2550.29 834.084C2545.59 834.126 2543.89 832.752 2543.91 827.866C2544.08 791.87 2544.07 755.872 2543.92 719.876C2543.9 715.187 2545.59 713.902 2550.05 713.928C2576.05 714.08 2602.05 714.089 2628.04 713.922C2632.62 713.893 2634.1 715.401 2634.09 719.966C2634.07 735.001 2634.22 735.001 2619.11 735.001C2604.95 735.001 2590.78 734.988 2576.62 735.008C2570.1 735.017 2570.03 735.106 2570 741.808C2569.99 746.141 2570.17 750.482 2569.96 754.805C2569.77 758.716 2571.37 760.082 2575.23 760.05C2591.23 759.92 2607.23 759.989 2623.23 760.007C2629.85 760.014 2629.85 760.039 2630 767.132Z" fill="url(#globalGradient)"/>
  <path d="M2215 834C2192.17 834 2169.84 833.873 2147.51 834.096C2142.52 834.146 2140.87 832.688 2140.9 827.586C2141.09 791.925 2141.08 756.263 2140.91 720.602C2140.89 715.742 2142.1 713.848 2147.32 713.895C2173.15 714.128 2198.98 714.101 2224.81 713.913C2229.63 713.878 2231.51 715.458 2231.05 720.238C2230.78 723.045 2230.78 725.919 2231.05 728.727C2231.5 733.464 2229.71 735.157 2224.84 735.09C2207.68 734.854 2190.52 734.994 2173.35 735.003C2166.02 735.007 2166.01 735.021 2166 742.57C2165.99 746.569 2166.19 750.58 2165.95 754.565C2165.7 758.724 2167.41 760.1 2171.49 760.06C2187.32 759.904 2203.15 759.99 2218.98 760.005C2225.97 760.011 2225.97 760.031 2226 766.908C2226.01 769.907 2225.76 772.93 2226.05 775.901C2226.54 780.853 2224.32 782.146 2219.67 782.082C2203.84 781.865 2188.01 782.152 2172.18 781.911C2167.34 781.837 2165.68 783.482 2165.92 788.25C2166.24 794.399 2166.24 800.59 2165.92 806.739C2165.68 811.492 2167.31 813.151 2172.17 813.09C2190.16 812.861 2208.16 812.99 2226.16 813.005C2232.9 813.011 2232.95 813.085 2233 819.581C2233.1 834 2233.1 834 2218.5 834C2217.5 834 2216.5 834 2215 834Z" fill="url(#globalGradient)"/>
  <path d="M2472 804.001C2471.99 797.835 2471.92 792.168 2472.01 786.504C2472.07 783.355 2470.79 781.971 2467.58 781.99C2455.25 782.062 2442.92 782.101 2430.59 781.967C2426.59 781.924 2425.95 784.044 2425.97 787.339C2426.05 800.837 2425.83 814.338 2426.09 827.831C2426.18 832.684 2424.5 834.41 2419.74 834.065C2415.43 833.753 2411.07 833.79 2406.75 834.057C2402.42 834.324 2400.85 832.725 2400.93 828.323C2401.15 816.329 2401 804.328 2401 792.33C2401 769.001 2401 745.671 2401 722.342C2401 714.006 2401.01 714.004 2409.58 714.002C2413.41 714 2417.25 714.144 2421.08 713.97C2424.77 713.802 2426.08 715.393 2426.04 719.005C2425.92 731.001 2426.15 743.003 2425.92 754.997C2425.84 759.521 2427.29 761.188 2431.92 761.083C2443.25 760.825 2454.59 760.796 2465.91 761.093C2470.87 761.222 2472.18 759.307 2472.08 754.661C2471.83 743.001 2472.15 731.33 2471.93 719.67C2471.84 715.257 2473.44 713.702 2477.76 713.942C2482.58 714.21 2487.43 714.211 2492.25 713.942C2496.58 713.7 2498.16 715.278 2498.07 719.679C2497.85 731.673 2498 743.674 2498 755.672C2498 778.835 2498 801.998 2498 825.161C2498 833.998 2498 834.001 2488.92 834C2484.75 833.999 2480.58 833.904 2476.42 834.009C2473.21 834.09 2471.96 832.644 2471.99 829.496C2472.07 821.165 2472.01 812.833 2472 804.001Z" fill="url(#globalGradient)"/>
  <path d="M2328 766C2328 786.98 2327.91 807.462 2328.07 827.941C2328.11 832.377 2326.86 834.383 2322.14 834.068C2317.33 833.748 2312.47 833.779 2307.66 834.061C2303.24 834.319 2301.9 832.534 2301.93 828.241C2302.08 805.93 2302 783.617 2302 761.305C2302 754.978 2302.01 748.65 2302 742.323C2301.99 735.016 2301.98 735.011 2294.41 735.001C2286.92 734.992 2279.42 734.884 2271.93 735.038C2268.26 735.114 2266.89 733.641 2266.97 730.015C2267.42 710.605 2264 714.228 2282.38 714.057C2307.02 713.827 2331.67 713.992 2356.31 714.006C2362.9 714.01 2362.96 714.104 2363 720.723C2363.09 735 2363.09 734.999 2348.88 735C2343.55 735.001 2338.22 735.136 2332.89 734.964C2329.18 734.845 2327.9 736.436 2327.96 740.025C2328.1 748.514 2328 757.008 2328 766Z" fill="url(#globalGradient)"/>
  <path d="M1705.32 734.979C1702.1 735.03 1700.94 733.583 1701.03 730.937C1701.03 730.771 1701.01 730.604 1701.02 730.438C1701.38 710.385 1697.91 714.252 1716.47 714.061C1740.61 713.813 1764.76 713.999 1788.91 714.002C1796.99 714.003 1797 714.01 1797 722.323C1797 724.988 1796.88 727.658 1797.02 730.315C1797.19 733.755 1795.66 735.074 1792.27 735.028C1784.11 734.915 1775.95 734.984 1767.78 735.005C1761.1 735.023 1761.01 735.094 1761.01 741.632C1760.99 769.944 1761 798.256 1761 826.568C1761 833.983 1760.98 833.985 1753.52 833.999C1749.86 834.006 1746.17 833.737 1742.53 834.064C1737.56 834.511 1735.86 832.739 1735.9 827.611C1736.11 799.967 1736.01 772.32 1736 744.674C1735.99 734.14 1736.84 735.035 1726.26 735.004C1719.44 734.984 1712.61 734.994 1705.32 734.979Z" fill="url(#globalGradient)"/>
  <path d="M916.007 828.757C916.002 792.97 916 757.654 916.001 722.338C916.001 714.005 916.007 714.002 924.579 714.001C928.577 714.001 932.577 714.097 936.572 713.992C939.779 713.907 941.068 715.34 941.012 718.494C940.915 723.989 940.999 729.488 941 734.985C941.001 765.803 940.91 796.621 941.092 827.438C941.121 832.349 939.831 834.512 934.636 834.076C930.17 833.701 925.643 833.878 921.151 834.031C917.674 834.149 915.653 833.049 916.007 828.757Z" fill="url(#globalGradient)"/>
  <path d="M1273 797C1273 771.184 1273.11 745.867 1272.91 720.553C1272.87 715.633 1274.19 713.49 1279.37 713.924C1283.84 714.297 1288.37 714.17 1292.85 713.957C1296.81 713.77 1298.08 715.456 1298.05 719.272C1297.92 735.593 1298 751.916 1298 768.238C1298 788.057 1297.89 807.878 1298.08 827.695C1298.13 832.372 1296.81 834.428 1291.88 834.07C1287.24 833.732 1282.56 833.858 1277.9 834.033C1274.19 834.173 1272.92 832.568 1272.96 828.977C1273.09 818.486 1273 807.992 1273 797Z" fill="url(#globalGradient)"/>
</svg>
