<svg width="3297" height="881" viewBox="0 0 3297 881" fill="none" xmlns="http://www.w3.org/2000/svg">
<defs>
  <linearGradient id="globalGradient" x1="0" y1="0" x2="3000" y2="0" gradientUnits="userSpaceOnUse">
    <stop offset="0%" stop-color="#00bcd4"/>
    <stop offset="5%" stop-color="#3fa3f7"/>
    <stop offset="70%" stop-color="#4f7df9"/>
    <stop offset="100%" stop-color="#a78bfa"/>
  </linearGradient>
</defs>
<path d="M522.067 386.31C522.252 483.41 522.9 580.515 521.819 677.601C521.724 686.162 512.127 697.61 503.859 702.571C467.336 724.484 429.699 744.539 392.438 765.219C333.58 797.886 274.714 830.536 215.801 863.104C212.441 864.961 208.635 866.011 202.524 868.432C201.957 859.72 201.115 852.737 201.107 845.752C201.017 758.019 201.488 670.282 200.666 582.557C200.507 565.539 205.97 556.679 221.116 548.533C276.233 518.889 330.35 487.382 387.164 455.475C397.431 451.295 406.458 451.317 413.933 447.348C450.331 428.024 485.82 405.92 522.067 386.31Z" fill="url(#globalGradient)"/>
<path d="M40.9186 459.862C40.6974 366.829 40.3299 273.796 40.6329 180.766C40.6504 175.404 44.7553 167.5 49.2624 165.086C141.171 115.859 233.414 67.2574 325.614 18.575C326.727 17.9873 328.143 17.9738 332.188 17.0801C332.722 23.6029 333.66 29.769 333.667 35.9362C333.764 120.947 333.442 205.961 334.024 290.968C334.119 304.874 329.692 312.067 317.048 318.462C277.4 338.515 238.643 360.332 196.828 382.135C186.81 385.9 179.278 388.556 172.233 392.164C128.401 414.611 84.678 437.272 40.9186 459.862Z" fill="url(#globalGradient)"/>
<path d="M720.698 510.92C705.665 509.252 703.424 516.557 703.51 527.757C703.874 575.307 703.65 622.862 703.642 670.416C703.641 677.714 703.642 685.013 703.642 694.124C679.809 694.124 657.457 694.124 633.162 694.124C633.162 549.789 633.162 405.03 633.162 258.54C640.726 258.169 647.878 257.526 655.032 257.514C709.923 257.429 764.822 258.001 819.705 257.31C869.796 256.679 937.581 304.105 937.654 374.287C937.69 409.496 931.571 440.925 908.12 466.465C894.169 481.658 875.604 492.61 857.554 506.685C889.105 566.846 921.583 628.775 956.523 695.4C925.854 695.4 899.61 696.082 873.473 694.719C869.193 694.496 864.279 685.805 861.528 680.121C837.797 631.082 813.896 582.106 791.405 532.494C784.068 516.308 775.178 508.024 756.693 510.611C745.531 512.173 733.973 510.904 720.698 510.92ZM793.223 446.531C807.836 443.002 823.319 441.452 836.864 435.492C858.666 425.898 872.615 392.841 868.218 367.509C864.622 346.789 842.936 323.961 819.896 322.751C782.101 320.767 744.128 322.214 705.503 322.214C705.503 364.645 705.503 404.854 705.503 446.531C734.695 446.531 762.048 446.531 793.223 446.531Z" fill="url(#globalGradient)"/>
<path d="M2395.28 750.54C2371.31 801.154 2330 822.013 2278.02 824.506C2229.42 826.837 2189.11 809.722 2156.93 770.48C2171.91 757.717 2184.87 746.599 2197.92 735.593C2205.95 728.818 2212.23 728.639 2222.03 735.736C2240.83 749.36 2261.77 761.313 2286.77 754.61C2326.85 743.863 2339.95 722.386 2333.95 674.84C2325.37 680.574 2318.53 686.692 2310.55 690.223C2248.83 717.536 2161.92 689.315 2155.81 605.691C2152.48 560.127 2153.43 514.022 2155.78 468.333C2158.36 418.027 2203.18 379.291 2252.99 377.781C2282.21 376.895 2308.61 381.603 2329.42 400.967C2335.92 393.328 2341.06 381.55 2347.57 380.736C2365.86 378.448 2384.75 380.237 2403.3 381.743C2405.34 381.909 2408.12 390.662 2408.14 395.438C2408.41 496.657 2408.9 597.882 2407.78 699.089C2407.6 715.822 2400.11 732.476 2395.28 750.54ZM2250.2 454.01C2231.47 464.516 2223.8 481.359 2223.53 501.968C2223.21 526.725 2223.12 551.494 2223.55 576.247C2224.06 606.413 2250.06 632.017 2279.93 631.384C2305.99 630.831 2340.01 607.505 2336.54 574.551C2333.96 550.05 2336.31 525.052 2335.84 500.288C2335.71 493.175 2334.68 485.562 2331.9 479.105C2318.84 448.712 2292.95 440.132 2250.2 454.01Z" fill="url(#globalGradient)"/>
<path d="M1544.36 695.955C1534.51 695.955 1526.55 695.955 1517.68 695.955C1516.43 688.322 1515.42 682.11 1514.08 673.843C1487.28 693.017 1459.08 701.544 1427.31 700.259C1387.9 698.664 1330.62 660.689 1330.85 611.607C1326.83 575.265 1325.7 538.758 1326.83 502.854C1327.72 474.759 1331.26 442.833 1351.96 420.372C1365.8 405.345 1382.69 389.322 1401.3 383.305C1436.89 371.798 1473.61 373.028 1504.26 400.599C1506.18 402.323 1508.65 403.459 1510.94 404.728C1511.34 404.95 1512.13 404.468 1515.09 403.706C1515.09 356.608 1515.09 308.818 1515.09 259.268C1538.37 259.268 1559.38 259.268 1582.29 259.268C1582.29 403.701 1582.29 548.447 1582.29 695.956C1569.93 695.956 1558.09 695.956 1544.36 695.955ZM1486.48 452.021C1482.7 450.789 1478.97 449.403 1475.15 448.349C1441.44 439.055 1413.56 451.789 1405.88 482.442C1396.28 520.815 1395.01 559.715 1407.53 598.002C1414.37 618.913 1432.01 631.265 1454.2 631.577C1481.37 631.959 1502.35 621.435 1506.81 598.363C1512.54 568.729 1513.39 536.7 1510.94 506.877C1510.9 474.598 1498.51 457.579 1486.48 452.021Z" fill="url(#globalGradient)"/>
<path d="M1042.48 407.268C1085.06 368.639 1154.55 370.38 1194.94 394.551C1260.8 433.962 1261.08 497.941 1257.63 566.316C1194.18 566.316 1131.06 566.316 1068.43 566.316C1061.71 612.314 1109.36 645.023 1148.29 633.84C1163.13 629.579 1176.16 619.354 1190.61 613.289C1196.89 610.656 1206.95 608.47 1211.38 611.607C1225.37 621.492 1237.51 633.995 1251.51 646.516C1228.97 676.978 1198.35 692.557 1163.93 698.511C1125.65 705.131 1087.63 699.583 1054.33 678.158C1020.28 656.255 1006.33 621.391 998.904 583.127C988.082 527.395 995.345 474.832 1025.67 426.296C1029.85 419.612 1036.13 414.246 1042.48 407.268ZM1185.9 497.389C1180.55 452.287 1145.99 439.492 1118.72 442.862C1091.82 446.187 1068.44 462.742 1067.06 506.173C1104.91 506.173 1142.73 506.243 1180.55 505.947C1182.25 505.933 1183.92 502.604 1185.9 497.389Z" fill="url(#globalGradient)"/>
<path d="M2923.05 487.393C2930.29 532.998 2929.2 576.195 2915.6 618.989C2892.91 690.406 2808.67 717.421 2745.46 691.294C2690.52 668.585 2663.96 625.768 2665.8 566.063C2666.74 535.462 2666.99 504.746 2669.99 474.325C2675.19 421.74 2734.53 376.223 2784.73 377.369C2825.68 378.304 2864.67 381.942 2890.09 417.04C2904.73 437.246 2912.28 462.59 2923.05 487.393ZM2854.66 510.024C2853.8 474.116 2832.15 448 2802.04 446.559C2763.71 444.726 2738.58 464.319 2734.67 501.705C2732.53 522.196 2732.64 543.224 2734.59 563.738C2735.99 578.464 2740.53 593.45 2746.57 607.026C2753.33 622.205 2784.72 634.841 2801.94 631.025C2824.67 625.99 2846.78 618.118 2850.12 591.077C2853.29 565.525 2853.22 539.573 2854.66 510.024Z" fill="url(#globalGradient)"/>
<path d="M3256.13 691.72C3232.78 693.683 3209.44 695.646 3184.39 697.752C3184.39 636.817 3184.55 579.537 3184.25 522.26C3184.2 512.357 3183.2 502.243 3180.99 492.607C3173.28 459.047 3150.25 442.89 3116.75 446.653C3089.22 449.745 3067.9 475.096 3067.84 505.323C3067.72 567.588 3067.81 629.853 3067.81 694.034C3045.49 694.034 3024.47 694.034 3000.73 694.034C3000.34 687.826 2999.52 680.808 2999.52 673.788C2999.43 583.332 2999.98 492.869 2999.04 402.423C2998.84 383.335 3005.41 376.895 3023.32 378.831C3029.94 379.546 3036.74 379.388 3043.39 378.849C3059.58 377.538 3073.01 378.922 3065.97 406.182C3075.91 400.019 3081.69 396.641 3087.26 392.955C3140.04 358.058 3225.48 382.08 3245.21 446.8C3247.91 455.643 3251.93 464.081 3255.97 474.435C3256.93 477.017 3256.84 477.819 3256.33 478.567C3256.52 547.16 3256.7 615.754 3256.87 686.653C3257.09 690.008 3256.85 690.928 3256.13 691.72Z" fill="url(#globalGradient)"/>
<path d="M1889.73 667.294C1889.73 677.131 1889.73 685.02 1889.73 694.425C1866.59 694.425 1845.59 694.425 1822.56 694.425C1822.15 686.901 1821.44 679.783 1821.44 672.664C1821.36 582.86 1821.96 493.049 1820.95 403.256C1820.73 383.218 1827.76 376.582 1846.44 378.845C1851.72 379.485 1857.19 379.401 1862.49 378.854C1879.95 377.052 1893.4 379.954 1890.35 404.526C1897.63 400.304 1902.9 397.667 1907.73 394.388C1959.69 359.119 2050.31 376.554 2071.4 451.926C2072.46 455.718 2074.45 459.508 2074.46 463.303C2074.64 539.631 2074.59 615.96 2074.59 695.679C2054.18 695.679 2034.98 696.652 2016.06 694.85C2012.31 694.493 2006.88 683.51 2006.79 677.365C2006.06 623.09 2004.45 568.712 2006.99 514.547C2008.86 474.604 1980.74 444.864 1948.92 446.157C1912.98 447.617 1890.26 471.882 1889.86 514.557C1889.38 564.816 1889.74 615.083 1889.73 667.294Z" fill="url(#globalGradient)"/>
<path d="M522.987 386.756C486.495 408.257 450.331 428.024 413.933 447.348C406.458 451.317 398.106 453.632 388.668 456.676C369.25 445.926 351.53 434.84 333.344 424.581C304.197 408.139 274.741 392.246 241.2 373.803C261.051 362.044 283.972 354.693 300.152 345.499C324.157 331.86 346.379 317.166 371.037 304.803C381.948 299.333 378.919 290.581 378.806 279.549C378.349 234.776 378.617 189.996 378.617 140.784C408.744 156.872 436.279 171.525 463.753 186.293C468.961 189.093 473.562 193.725 479.058 195.174C516.531 205.051 528.025 228.413 524.221 266.568C520.326 305.645 523.277 345.405 522.987 386.756Z" fill="url(#globalGradient)"/>
<path d="M40.6699 461.633C84.678 437.272 128.401 414.611 172.233 392.164C179.278 388.556 186.81 385.9 195.568 382.808C237.305 405.865 277.59 428.918 321.077 453.802C287.051 473.345 256.011 491.23 224.914 509.014C204.914 520.451 185.286 532.685 164.592 542.702C154.091 547.785 152.493 554.362 152.623 564.413C153.059 598.328 152.789 632.252 152.789 669.041C115.858 648.751 81.2519 630.305 47.4487 610.487C42.9483 607.849 40.6 598.276 40.521 591.874C39.9931 549.057 40.3509 506.229 40.6699 461.633Z" fill="url(#globalGradient)"/>
<path d="M2478.42 379.487C2493.35 380.527 2497.55 374.293 2497.04 361.534C2496.25 341.477 2497.19 321.356 2496.76 301.275C2496.52 290.054 2501.39 285.193 2512.28 285.682C2512.95 285.712 2513.62 285.656 2514.29 285.666C2581.34 286.637 2567.62 276.527 2569.21 338.252C2569.3 341.598 2569.22 344.948 2569.22 348.296C2569.24 376.926 2569.22 377.367 2597.01 378.806C2608.69 379.41 2614.21 383.401 2613.55 395.647C2612.92 407.527 2613.42 419.467 2613.42 433.046C2605.07 433.601 2598.63 434.199 2592.18 434.41C2585.61 434.625 2579.03 434.457 2569.22 434.457C2569.22 447.411 2569.22 458.512 2569.22 469.613C2569.22 513.812 2569.2 558.011 2569.23 602.209C2569.25 630.731 2569.28 630.706 2598.4 631.653C2602.35 631.782 2606.3 632.304 2611.83 632.781C2611.83 652.811 2611.83 672.538 2611.83 692.313C2546.67 707.025 2496.85 682.962 2496.83 608.552C2496.82 553.64 2496.7 498.728 2496.56 443.816C2496.55 441.883 2495.82 439.952 2495.09 436.399C2487.8 435.352 2480.13 434.251 2469.55 432.733C2472.17 415.218 2459.89 396.341 2478.42 379.487Z" fill="url(#globalGradient)"/>
<path d="M1732.95 399.514C1732.96 498.379 1732.96 595.368 1732.96 694.153C1710.43 694.153 1689.42 694.153 1665.85 694.153C1665.45 687.666 1664.64 680.628 1664.63 673.589C1664.55 583.216 1665.09 492.837 1664.16 402.473C1663.97 383.513 1670.35 376.969 1688.36 378.798C1696.97 379.672 1705.77 379.405 1714.44 378.887C1728.08 378.071 1734.66 383.594 1732.95 399.514Z" fill="url(#globalGradient)"/>
<path d="M1664.58 285.924C1664.58 276.163 1664.58 268.314 1664.58 257.472C1677.15 257.472 1687.56 257.472 1697.97 257.472C1708.52 257.472 1719.08 257.472 1731.29 257.472C1731.29 280.261 1731.29 301.221 1731.29 324.07C1710.49 324.07 1689.54 324.07 1664.58 324.07C1664.58 312.411 1664.58 300.124 1664.58 285.924Z" fill="url(#globalGradient)"/>
<path d="M3256.39 477.807C3256.79 477.817 3256.87 477.016 3256.32 475.873C3256.08 475.585 3256.48 477.05 3256.39 477.807Z" fill="#00AA55"/>
<path d="M3256.31 690.822C3256.8 690.925 3257.02 690.005 3256.55 688.53C3256.31 688.104 3256.49 689.926 3256.31 690.822Z" fill="#00AA55"/>
</svg>
